<?xml version="1.0" encoding="UTF-8"?>
<svg width="123px" height="82px" viewBox="0 0 123 82" version="1.1" xmlns="http://www.w3.org/2000/svg" xmlns:xlink="http://www.w3.org/1999/xlink">
    <!-- Generator: Sketch 46.2 (44496) - http://www.bohemiancoding.com/sketch -->
    <title>HIW-03-2_wide</title>
    <desc>Created with Sketch.</desc>
    <defs></defs>
    <g id="pages" stroke="none" stroke-width="1" fill="none" fill-rule="evenodd">
        <g id="[w]-3.1.1---Product---How-It-Works---Overlay" transform="translate(-1183.000000, -599.000000)">
            <g id="graphic-/-hover" transform="translate(616.000000, 258.000000)">
                <g id="Group-29-Copy" transform="translate(409.000000, 302.000000)">
                    <g id="HIW-03-2_wide" transform="translate(159.000000, 40.000000)">
                        <g id="Group-1270-Copy" transform="translate(24.000000, 16.000000) scale(-1, 1) translate(-24.000000, -16.000000) " stroke="#151515" stroke-linecap="round" stroke-linejoin="round">
                            <path d="M0.363636364,31.8787879 L20.6233766,11.6190476" id="Stroke-1700"></path>
                            <path d="M26.2510823,21.7489177 L47.6363636,0.363636364" id="Stroke-1701"></path>
                            <polyline id="Stroke-1702" points="13.8701299 31.8787879 0.363636364 31.8787879 0.363636364 18.3722944"></polyline>
                            <polyline id="Stroke-1703" points="47.6363636 13.8701299 47.6363636 0.363636364 34.1298701 0.363636364"></polyline>
                        </g>
                        <g id="icon_cloud-costs" transform="translate(60.000000, 29.000000)" fill-rule="nonzero" fill="#33A3AC">
                            <path d="M30.8611111,0.4 C21.1423791,0.4 13.1021884,7.7600309 12.1962949,17.2671939 C6.02239536,16.3906933 0.4,21.1417913 0.4,27.4387789 C0.4,31.9831863 2.49359704,34.9229031 5.94311548,36.5040118 C7.10573059,37.0369039 8.34452163,37.3760093 9.58673144,37.5616264 C10.3562108,37.6766057 10.9794727,37.7140113 11.3838037,37.7110276 C11.7262955,37.7060962 11.9909911,37.4335903 11.986174,37.1022545 C11.9813568,36.7709187 11.7088509,36.506223 11.3775151,36.5110402 C11.0293646,36.5136105 10.4672462,36.4798745 9.7640724,36.3748028 C8.62625056,36.2047839 7.49412198,35.8948761 6.4431219,35.4131435 C3.40124197,34.0188785 1.6,31.4896711 1.6,27.4387789 C1.6,21.6784389 6.93329075,17.3793297 12.6217234,18.5590115 C12.9800274,18.6333175 13.3208249,18.3723473 13.3425065,18.0070625 C13.8882328,8.81282187 21.5504981,1.6 30.8611111,1.6 C37.7158829,1.6 43.8437644,5.54265282 46.7322578,11.601808 C46.8352533,11.8178604 47.0568025,11.9520331 47.2959862,11.9432081 C54.3422179,11.6832298 60.1222222,17.2721993 60.1222222,24.2111177 C60.1222222,28.2986462 58.5849751,31.3215067 55.9060441,33.4761041 C54.033498,34.9821462 51.8333609,35.9000047 49.7212448,36.37457 C49.3979345,36.4472137 49.1947291,36.7681978 49.2673727,37.0915081 C49.3400164,37.4148183 49.6610005,37.6180238 49.9843108,37.5453801 C52.2602142,37.0340139 54.622181,36.0486429 56.6581131,34.4111935 C59.6125247,32.0350339 61.3222222,28.673065 61.3222222,24.2111177 C61.3222222,16.7222983 55.1920069,10.6675874 47.6439522,10.7350314 C44.4915853,4.46067152 38.0497336,0.4 30.8611111,0.4 Z" id="Stroke-5295"></path>
                            <path d="M43.4555556,37.5740741 C43.4555556,30.4916486 37.7120551,24.7481481 30.6296296,24.7481481 C23.5454649,24.7481481 17.8037037,30.4907026 17.8037037,37.5740741 C17.8037037,44.6591847 23.544519,50.4 30.6296296,50.4 C37.7130011,50.4 43.4555556,44.6582388 43.4555556,37.5740741 Z M44.6555556,37.5740741 C44.6555556,45.3210176 38.3757057,51.6 30.6296296,51.6 C22.8817773,51.6 16.6037037,45.3219264 16.6037037,37.5740741 C16.6037037,29.827998 22.8826861,23.5481481 30.6296296,23.5481481 C38.3747968,23.5481481 44.6555556,29.8289069 44.6555556,37.5740741 Z" id="Stroke-5296"></path>
                            <g id="Group-32" transform="translate(26.000000, 28.000000)">
                                <path d="M0.788888889,12.4675926 C0.788888889,14.530571 2.51452235,16.1925926 4.62962963,16.1925926 C6.74664344,16.1925926 8.47037037,14.5314179 8.47037037,12.4675926 C8.47037037,10.4059633 6.74613438,8.74528888 4.62962963,8.74528888 C3.16947487,8.74528888 1.98888889,7.60686668 1.98888889,6.22028888 C1.98888889,4.82966665 3.1680768,3.69259259 4.62962963,3.69259259 C6.09293599,3.69259259 7.27037037,4.82865238 7.27037037,6.22028888 C7.27037037,6.55165973 7.53899952,6.82028888 7.87037037,6.82028888 C8.20174122,6.82028888 8.47037037,6.55165973 8.47037037,6.22028888 C8.47037037,4.15611568 6.74626279,2.49259259 4.62962963,2.49259259 C2.51490342,2.49259259 0.788888889,4.15696375 0.788888889,6.22028888 C0.788888889,8.27956958 2.5163015,9.94528888 4.62962963,9.94528888 C6.09326781,9.94528888 7.27037037,11.0789992 7.27037037,12.4675926 C7.27037037,13.8585486 6.09362348,14.9925926 4.62962963,14.9925926 C3.1673891,14.9925926 1.98888889,13.8575354 1.98888889,12.4675926 C1.98888889,12.1362217 1.72025974,11.8675926 1.38888889,11.8675926 C1.05751804,11.8675926 0.788888889,12.1362217 0.788888889,12.4675926 Z" id="Stroke-5297"></path>
                                <path d="M3.9,15.5925926 L3.9,17.7398148 C3.9,18.0711857 4.16862915,18.3398148 4.5,18.3398148 C4.83137085,18.3398148 5.1,18.0711857 5.1,17.7398148 L5.1,15.5925926 C5.1,15.2612217 4.83137085,14.9925926 4.5,14.9925926 C4.16862915,14.9925926 3.9,15.2612217 3.9,15.5925926 Z" id="Stroke-5298"></path>
                                <path d="M3.9,1.24074074 L3.9,3.084374 C3.9,3.41574485 4.16862915,3.684374 4.5,3.684374 C4.83137085,3.684374 5.1,3.41574485 5.1,3.084374 L5.1,1.24074074 C5.1,0.909369891 4.83137085,0.640740741 4.5,0.640740741 C4.16862915,0.640740741 3.9,0.909369891 3.9,1.24074074 Z" id="Stroke-5299"></path>
                            </g>
                        </g>
                    </g>
                </g>
            </g>
        </g>
    </g>
</svg>