<?xml version="1.0" encoding="UTF-8"?>
<svg width="133px" height="115px" viewBox="0 0 133 115" version="1.1" xmlns="http://www.w3.org/2000/svg" xmlns:xlink="http://www.w3.org/1999/xlink">
    <!-- Generator: Sketch 46.2 (44496) - http://www.bohemiancoding.com/sketch -->
    <title>HIW-02-1_wide</title>
    <desc>Created with Sketch.</desc>
    <defs></defs>
    <g id="pages" stroke="none" stroke-width="1" fill="none" fill-rule="evenodd">
        <g id="[w]-3.1.0---Product---How-It-Works" transform="translate(-828.000000, -651.000000)">
            <g id="graphic_HIW-01_wide" transform="translate(0.000000, 238.000000)">
                <g id="HIW_wide" transform="translate(828.000000, 71.000000)">
                    <g id="HIW-02-1_wide" transform="translate(0.000000, 343.000000)">
                        <g id="Group-1270" transform="translate(82.000000, 0.000000)" stroke="#FFFFFF" stroke-width="1.6" stroke-linecap="round" stroke-linejoin="round">
                            <path d="M0.378787879,33.2070707 L21.482684,12.1031746" id="Stroke-1700"></path>
                            <path d="M27.3448773,22.6551227 L49.6212121,0.378787879" id="Stroke-1701"></path>
                            <polyline id="Stroke-1702" points="14.4480519 33.2070707 0.378787879 33.2070707 0.378787879 19.1378066"></polyline>
                            <polyline id="Stroke-1703" points="49.6212121 14.4480519 49.6212121 0.378787879 35.5519481 0.378787879"></polyline>
                        </g>
                        <g id="icon_subscription-costs-copy" transform="translate(0.000000, 34.000000)" fill-rule="nonzero" fill="#FFFFFF">
                            <path d="M8.25806452,2.06451613 L42.6470605,2.06451613 L61.5483871,20.9658428 L61.5483871,74.7096774 L8.25806452,74.7096774 L8.25806452,47.6801762 C8.25806452,47.2526009 7.91144626,46.9059826 7.48387097,46.9059826 C7.05629568,46.9059826 6.70967742,47.2526009 6.70967742,47.6801762 L6.70967742,75.483871 C6.70967742,75.9114463 7.05629568,76.2580645 7.48387097,76.2580645 L62.3225806,76.2580645 C62.7501559,76.2580645 63.0967742,75.9114463 63.0967742,75.483871 L63.0967742,20.6451613 C63.0967742,20.4398324 63.0152076,20.2429132 62.8700182,20.0977238 L43.5151794,0.742885073 C43.36999,0.597695618 43.1730708,0.516129032 42.9677419,0.516129032 L7.48387097,0.516129032 C7.05629568,0.516129032 6.70967742,0.86274729 6.70967742,1.29032258 L6.70967742,15.3369077 C6.70967742,15.7644829 7.05629568,16.1111012 7.48387097,16.1111012 C7.91144626,16.1111012 8.25806452,15.7644829 8.25806452,15.3369077 L8.25806452,2.06451613 Z" id="Stroke-6769"></path>
                            <path d="M41.3880464,48.9345343 L71.710627,79.2571149 C72.0129684,79.5594563 72.5031606,79.5594563 72.805502,79.2571149 C73.1078434,78.9547735 73.1078434,78.4645813 72.805502,78.1622399 L42.4829214,47.8396593 C42.18058,47.5373179 41.6903878,47.5373179 41.3880464,47.8396593 C41.085705,48.1420007 41.085705,48.6321929 41.3880464,48.9345343 Z" id="Stroke-4098"></path>
                            <path d="M19.8709677,64 L48.9032258,64 C49.3308011,64 49.6774194,63.6533817 49.6774194,63.2258065 C49.6774194,62.7982312 49.3308011,62.4516129 48.9032258,62.4516129 L19.8709677,62.4516129 C19.4433925,62.4516129 19.0967742,62.7982312 19.0967742,63.2258065 C19.0967742,63.6533817 19.4433925,64 19.8709677,64 Z" id="Stroke-6775"></path>
                            <path d="M44,17.4799237 L44,1.70713939 C44,1.2795641 43.6533817,0.932945839 43.2258065,0.932945839 C42.7982312,0.932945839 42.4516129,1.2795641 42.4516129,1.70713939 L42.4516129,17.7045731 C42.4516129,17.8513129 42.4933159,17.995031 42.5718619,18.1189789 L44.4353179,21.0595671 C44.5772827,21.2835917 44.8240436,21.4193548 45.0892624,21.4193548 L62.0288348,21.4193548 C62.4564101,21.4193548 62.8030283,21.0727366 62.8030283,20.6451613 C62.8030283,20.217586 62.4564101,19.8709677 62.0288348,19.8709677 L45.5152088,19.8709677 L44,17.4799237 Z" id="Stroke-6770"></path>
                            <path d="M46.9677419,31.483871 C46.9677419,19.0849946 36.9150054,9.03225806 24.516129,9.03225806 C12.1172527,9.03225806 2.06451613,19.0849946 2.06451613,31.483871 C2.06451613,43.8827473 12.1172527,53.9354839 24.516129,53.9354839 C36.9150054,53.9354839 46.9677419,43.8827473 46.9677419,31.483871 Z M48.516129,31.483871 C48.516129,44.7378979 37.7701559,55.483871 24.516129,55.483871 C11.2621021,55.483871 0.516129032,44.7378979 0.516129032,31.483871 C0.516129032,18.2298441 11.2621021,7.48387097 24.516129,7.48387097 C37.7701559,7.48387097 48.516129,18.2298441 48.516129,31.483871 Z" id="Stroke-4097"></path>
                            <g id="Group-32" transform="translate(18.731183, 20.021505)">
                                <path d="M0.35125448,15.4205496 C0.35125448,18.0824573 2.5778783,20.2270012 5.30704898,20.2270012 C8.03867971,20.2270012 10.2628435,18.08355 10.2628435,15.4205496 C10.2628435,12.7603828 8.03802286,10.6175771 5.30704898,10.6175771 C3.42297833,10.6175771 1.89964158,9.14864518 1.89964158,7.35951254 C1.89964158,5.56516126 3.42117436,4.09796894 5.30704898,4.09796894 C7.19518622,4.09796894 8.71445639,5.56385253 8.71445639,7.35951254 C8.71445639,7.78708783 9.06107465,8.13370608 9.48864994,8.13370608 C9.91622523,8.13370608 10.2628435,7.78708783 10.2628435,7.35951254 C10.2628435,4.69606325 8.03818855,2.54958184 5.30704898,2.54958184 C2.57837001,2.54958184 0.35125448,4.69715753 0.35125448,7.35951254 C0.35125448,10.0166489 2.58017398,12.1659641 5.30704898,12.1659641 C7.19561438,12.1659641 8.71445639,13.6288162 8.71445639,15.4205496 C8.71445639,17.2153315 7.1960733,18.6786141 5.30704898,18.6786141 C3.42028701,18.6786141 1.89964158,17.2140241 1.89964158,15.4205496 C1.89964158,14.9929743 1.55302332,14.646356 1.12544803,14.646356 C0.697872738,14.646356 0.35125448,14.9929743 0.35125448,15.4205496 Z" id="Stroke-5297"></path>
                                <path d="M4.3655914,19.4528076 L4.3655914,22.223417 C4.3655914,22.6509923 4.71220966,22.9976105 5.13978495,22.9976105 C5.56736024,22.9976105 5.91397849,22.6509923 5.91397849,22.223417 L5.91397849,19.4528076 C5.91397849,19.0252324 5.56736024,18.6786141 5.13978495,18.6786141 C4.71220966,18.6786141 4.3655914,19.0252324 4.3655914,19.4528076 Z" id="Stroke-5298"></path>
                                <path d="M4.3655914,0.934289128 L4.3655914,3.31317076 C4.3655914,3.74074605 4.71220966,4.08736431 5.13978495,4.08736431 C5.56736024,4.08736431 5.91397849,3.74074605 5.91397849,3.31317076 L5.91397849,0.934289128 C5.91397849,0.506713838 5.56736024,0.160095579 5.13978495,0.160095579 C4.71220966,0.160095579 4.3655914,0.506713838 4.3655914,0.934289128 Z" id="Stroke-5299"></path>
                            </g>
                        </g>
                    </g>
                </g>
            </g>
        </g>
    </g>
</svg>