<?xml version="1.0" encoding="UTF-8"?>
<svg width="209px" height="61px" viewBox="0 0 209 61" version="1.1" xmlns="http://www.w3.org/2000/svg" xmlns:xlink="http://www.w3.org/1999/xlink">
    <!-- Generator: Sketch 46.2 (44496) - http://www.bohemiancoding.com/sketch -->
    <title>HIW-01-2_wide</title>
    <desc>Created with Sketch.</desc>
    <defs></defs>
    <g id="pages" stroke="none" stroke-width="1" fill="none" fill-rule="evenodd">
        <g id="[w]-3.1.1---Product---How-It-Works---Overlay" transform="translate(-1012.000000, -297.000000)" fill-rule="nonzero" fill="#33A3AC">
            <g id="graphic-/-hover" transform="translate(616.000000, 258.000000)">
                <g id="graphic-/-hover-1" transform="translate(283.000000, 0.000000)">
                    <g id="HIW-01-2_wide" transform="translate(114.000000, 40.000000)">
                        <g id="icon_optimize" transform="translate(150.000000, 9.375000)">
                            <path d="M32.1272321,29.0625 C32.1272321,27.3694029 30.7549653,25.9977679 29.0625,25.9977679 C27.3700347,25.9977679 25.9977679,27.3694029 25.9977679,29.0625 C25.9977679,30.754072 27.370928,32.1272321 29.0625,32.1272321 C30.754072,32.1272321 32.1272321,30.754072 32.1272321,29.0625 Z M33.2522321,29.0625 C33.2522321,31.3753923 31.3753923,33.2522321 29.0625,33.2522321 C26.7496077,33.2522321 24.8727679,31.3753923 24.8727679,29.0625 C24.8727679,26.7479665 26.7488303,24.8727679 29.0625,24.8727679 C31.3761697,24.8727679 33.2522321,26.7479665 33.2522321,29.0625 Z" id="Stroke-3082"></path>
                            <path d="M32.0246605,26.8946255 L43.9945266,14.9271776 C44.2142187,14.7075299 44.2142547,14.3513746 43.9946069,14.1316825 C43.7749592,13.9119904 43.4188039,13.9119544 43.1991118,14.1316021 L31.2292457,26.0990501 C31.0095536,26.3186978 31.0095177,26.6748531 31.2291654,26.8945452 C31.4488131,27.1142373 31.8049684,27.1142733 32.0246605,26.8946255 Z" id="Stroke-3083"></path>
                            <path d="M6.09002976,30.5178571 L10.9263393,30.5178571 C11.2369995,30.5178571 11.4888393,30.2660173 11.4888393,29.9553571 C11.4888393,29.644697 11.2369995,29.3928571 10.9263393,29.3928571 L6.09002976,29.3928571 C5.77936959,29.3928571 5.52752976,29.644697 5.52752976,29.9553571 C5.52752976,30.2660173 5.77936959,30.5178571 6.09002976,30.5178571 Z" id="Stroke-3084"></path>
                            <path d="M52.0349702,29.3928571 L47.1986607,29.3928571 C46.8880005,29.3928571 46.6361607,29.644697 46.6361607,29.9553571 C46.6361607,30.2660173 46.8880005,30.5178571 47.1986607,30.5178571 L52.0349702,30.5178571 C52.3456304,30.5178571 52.5974702,30.2660173 52.5974702,29.9553571 C52.5974702,29.644697 52.3456304,29.3928571 52.0349702,29.3928571 Z" id="Stroke-3085"></path>
                            <path d="M50.0700461,19.7520534 L45.6012961,21.6019418 C45.3142579,21.7207644 45.1778922,22.0497796 45.2967148,22.3368178 C45.4155375,22.623856 45.7445527,22.7602216 46.0315909,22.641399 L50.5003409,20.7915106 C50.787379,20.672688 50.9237447,20.3436728 50.8049221,20.0566346 C50.6860994,19.7695964 50.3570842,19.6332307 50.0700461,19.7520534 Z" id="Stroke-3086"></path>
                            <path d="M37.3322803,7.62345007 L35.4823919,12.0922001 C35.3635693,12.3792383 35.4999349,12.7082535 35.7869731,12.8270761 C36.0740113,12.9458987 36.4030265,12.8095331 36.5218492,12.5224949 L38.3717376,8.05374487 C38.4905602,7.76670668 38.3541945,7.43769147 38.0671563,7.31886884 C37.7801181,7.20004621 37.4511029,7.33641187 37.3322803,7.62345007 Z" id="Stroke-3087"></path>
                            <path d="M28.5,6.09002976 L28.5,10.9263393 C28.5,11.2369995 28.7518398,11.4888393 29.0625,11.4888393 C29.3731602,11.4888393 29.625,11.2369995 29.625,10.9263393 L29.625,6.09002976 C29.625,5.77936959 29.3731602,5.52752976 29.0625,5.52752976 C28.7518398,5.52752976 28.5,5.77936959 28.5,6.09002976 Z" id="Stroke-3088"></path>
                            <path d="M19.7532624,8.05374487 L21.6031508,12.5224949 C21.7219735,12.8095331 22.0509887,12.9458987 22.3380269,12.8270761 C22.6250651,12.7082535 22.7614307,12.3792383 22.6426081,12.0922001 L20.7927197,7.62345007 C20.6738971,7.33641187 20.3448819,7.20004621 20.0578437,7.31886884 C19.7708055,7.43769147 19.6344398,7.76670668 19.7532624,8.05374487 Z" id="Stroke-3089"></path>
                            <path d="M12.4220687,13.2139361 L15.8365032,16.6356251 C16.0559399,16.855528 16.412095,16.855906 16.6319979,16.6364693 C16.8519008,16.4170326 16.8522787,16.0608775 16.632842,15.8409746 L13.2184075,12.4192856 C12.9989708,12.1993827 12.6428157,12.1990048 12.4229128,12.4184414 C12.2030099,12.6378781 12.202632,12.9940332 12.4220687,13.2139361 Z" id="Stroke-3090"></path>
                            <path d="M7.62455971,20.7914694 L12.0908916,22.6413578 C12.377907,22.7602354 12.7069483,22.6239327 12.8258258,22.3369172 C12.9447034,22.0499018 12.8084007,21.7208605 12.5213852,21.6019829 L8.05505338,19.7520945 C7.76803793,19.633217 7.43899664,19.7695197 7.32011909,20.0565352 C7.20124155,20.3435506 7.33754426,20.6725919 7.62455971,20.7914694 Z" id="Stroke-3091"></path>
                            <path d="M29.0625,0.691220238 C44.7324516,0.691220238 57.4337798,13.3933113 57.4337798,29.0625 L57.4337798,39.9441964 C57.4337798,40.2548566 57.1819399,40.5066964 56.8712798,40.5066964 L1.25372024,40.5066964 C0.943060066,40.5066964 0.691220238,40.2548566 0.691220238,39.9441964 L0.691220238,29.0625 C0.691220238,13.3933113 13.3925484,0.691220238 29.0625,0.691220238 Z M56.3087798,39.3816964 L56.3087798,29.0625 C56.3087798,14.0146165 44.1111162,1.81622024 29.0625,1.81622024 C14.0138838,1.81622024 1.81622024,14.0146165 1.81622024,29.0625 L1.81622024,39.3816964 L56.3087798,39.3816964 Z" id="Stroke-3092"></path>
                        </g>
                        <g id="icon_manage" transform="translate(75.000000, 1.875000)">
                            <path d="M32.3144903,0.316220238 C32.3144903,0.00556006632 32.0626505,-0.246279762 31.7519903,-0.246279762 L24.497526,-0.246279762 C24.1868659,-0.246279762 23.935026,0.00556006632 23.935026,0.316220238 L23.935026,7.72793724 C21.0934936,8.42395669 18.9973004,9.08802781 17.5267002,9.89075264 L12.2771688,4.64579204 C12.0574984,4.42631288 11.7015309,4.42635894 11.4819172,4.64589493 L4.64095743,11.4844366 C4.42118739,11.7041289 4.42119469,12.0604053 4.64097372,12.2800886 L9.89029059,17.5271202 C9.09011693,18.9917542 8.43296475,21.0635163 7.72378496,23.9352679 L0.315978423,23.9352679 C0.00531825084,23.9352679 -0.246521577,24.1871077 -0.246521577,24.4977679 L-0.246521577,31.7522321 C-0.246521577,32.0628923 0.00531825084,32.3147321 0.315978423,32.3147321 L7.72378496,32.3147321 C8.43297862,35.1865398 9.09014262,37.2583268 9.89033752,38.7229657 L4.64088711,43.9724161 C4.42118974,44.1921135 4.42122122,44.548323 4.64095743,44.7679816 L11.4819172,51.6065232 C11.7016324,51.8261607 12.0578002,51.8260904 12.2774286,51.6063663 L17.5240278,46.357482 C18.988075,47.1598615 21.0505232,47.8138651 23.935026,48.5259887 L23.935026,55.9337798 C23.935026,56.2444399 24.1868659,56.4962798 24.497526,56.4962798 L31.7519903,56.4962798 C32.0626505,56.4962798 32.3144903,56.2444399 32.3144903,55.9337798 L32.3144903,48.5259898 C35.1982265,47.8140716 37.2598916,47.1605223 38.7209361,46.3597851 L43.9723475,51.606626 C44.1920454,51.8261327 44.5480671,51.8260552 44.7676694,51.6064529 L51.6062111,44.7679113 C51.8258472,44.5482752 51.825886,44.1921866 51.6062977,43.9725027 L46.3591319,38.7230516 C47.1593481,37.2584078 47.8165239,35.1865959 48.5257314,32.3147321 L55.9335379,32.3147321 C56.2441981,32.3147321 56.4960379,32.0628923 56.4960379,31.7522321 L56.4960379,24.4977679 C56.4960379,24.1871077 56.2441981,23.9352679 55.9335379,23.9352679 L48.523663,23.9352679 C48.1545076,22.4349608 47.8171417,21.2222229 47.4271318,20.0731206 C47.3272866,19.7789426 47.0078677,19.6214047 46.7136898,19.7212499 C46.4195118,19.8210951 46.2619739,20.140514 46.3618191,20.4346919 C46.7751747,21.6525787 47.1311467,22.9576286 47.5350104,24.6298243 C47.5960009,24.8823554 47.8219976,25.0602679 48.0817894,25.0602679 L55.3710379,25.0602679 L55.3710379,31.1897321 L48.0842076,31.1897321 C47.8245541,31.1897321 47.59864,31.3674591 47.5375157,31.6198154 C46.7512923,34.8657948 46.0368678,37.1136311 45.176345,38.5224515 C45.0409586,38.7441019 45.074931,39.0296281 45.2585461,39.2133232 L50.413055,44.3700771 L44.3697488,50.4133834 L39.2105766,45.2587013 C39.0266383,45.0749231 38.740711,45.0411645 38.5190306,45.1770525 C37.113798,46.0384468 34.8801956,46.7479874 31.6195736,47.5377575 C31.3672173,47.5988819 31.1894903,47.824796 31.1894903,48.0844494 L31.1894903,55.3712798 L25.060026,55.3712798 L25.060026,48.0844494 C25.060026,47.824796 24.8822991,47.5988819 24.6299428,47.5377575 C21.3687945,46.74786 19.1348065,46.0380045 17.7255431,45.1745692 C17.5037553,45.038683 17.217726,45.0725805 17.0338437,45.2565429 L11.8794376,50.413194 L5.83420012,44.3700934 L10.9908837,39.2134098 C11.1745711,39.0297224 11.2085816,38.7441409 11.0731713,38.5224515 C10.2126485,37.1136311 9.49822409,34.8657948 8.7120007,31.6198154 C8.65087633,31.3674591 8.42496223,31.1897321 8.16530878,31.1897321 L0.878478423,31.1897321 L0.878478423,25.0602679 L8.16530878,25.0602679 C8.42496223,25.0602679 8.65087633,24.8825409 8.7120007,24.6301846 C9.49822409,21.3842052 10.2126485,19.1363689 11.0731713,17.7275485 C11.2086054,17.5058201 11.1745569,17.2201834 10.9907971,17.0365036 L5.83428676,11.8822382 L11.8796974,5.83896449 L17.0365217,10.9912987 C17.2202244,11.1748415 17.5056953,11.2087757 17.7273066,11.0734131 C19.139024,10.2111209 21.4209121,9.48695145 24.6287506,8.71736621 C24.8816848,8.65668534 25.060026,8.4304982 25.060026,8.1703869 L25.060026,0.878720238 L31.1894903,0.878720238 L31.1894903,8.1703869 C31.1894903,8.4304982 31.3678315,8.65668534 31.6207658,8.71736621 C34.8245314,9.48597434 37.1077006,10.2108927 38.5197916,11.0734131 C38.7849077,11.2353489 39.1311016,11.1517047 39.2930374,10.8865886 C39.4549732,10.6214725 39.371329,10.2752786 39.1062129,10.1133428 C37.6247186,9.20843007 35.4106262,8.48640148 32.3144903,7.72794249 L32.3144903,0.316220238 Z" id="Stroke-6352"></path>
                            <path d="M18.8727987,22.9149858 C18.6664073,22.6827955 18.3108666,22.6618814 18.0786763,22.8682727 C17.846486,23.0746641 17.8255718,23.4302048 18.0319632,23.6623951 L27.7045823,34.5440916 C27.9341991,34.8024105 28.3402805,34.7944967 28.5596585,34.5274278 L56.3684383,0.673261164 C56.5656265,0.433205893 56.530876,0.0787499782 56.2908207,-0.11843828 C56.0507654,-0.315626538 55.6963095,-0.280875959 55.4991212,-0.0408206875 L28.1081301,33.3047337 L18.8727987,22.9149858 Z" id="Stroke-6353"></path>
                        </g>
                        <g id="icon_discover">
                            <path d="M10.9661756,28.2966247 C10.9661756,18.724469 18.724469,10.9661756 28.2966247,10.9661756 C37.8650983,10.9661756 45.6270738,18.7263643 45.6270738,28.2966247 C45.6270738,36.0813441 40.4350702,42.827449 33.0770166,44.9367744 L33.0770166,47.8189359 C33.0770166,48.1486717 32.8097129,48.4159754 32.4799771,48.4159754 L24.1132723,48.4159754 C23.7835365,48.4159754 23.5162328,48.1486717 23.5162328,47.8189359 L23.5162328,44.9368657 C16.1552803,42.828288 10.9661756,36.0837858 10.9661756,28.2966247 Z M31.8829376,44.4806207 C31.8829376,44.2083359 32.0671608,43.9705444 32.3308104,43.9025157 C39.4016322,42.0780522 44.4329949,35.6898295 44.4329949,28.2966247 C44.4329949,19.3858974 37.2056883,12.1602546 28.2966247,12.1602546 C19.3839406,12.1602546 12.1602546,19.3839406 12.1602546,28.2966247 C12.1602546,35.692334 17.1885683,42.0786766 24.2623309,43.9024878 C24.5260335,43.9704776 24.7103118,44.2082943 24.7103118,44.4806207 L24.7103118,47.2218965 L31.8829376,47.2218965 L31.8829376,44.4806207 Z" id="Stroke-276"></path>
                            <path d="M29.6910755,58.1200658 L26.9021739,58.1200658 C26.5724381,58.1200658 26.3051344,58.3873695 26.3051344,58.7171053 C26.3051344,59.0468411 26.5724381,59.3141447 26.9021739,59.3141447 L29.6910755,59.3141447 C30.0208113,59.3141447 30.288115,59.0468411 30.288115,58.7171053 C30.288115,58.3873695 30.0208113,58.1200658 29.6910755,58.1200658 Z" id="Stroke-278"></path>
                            <path d="M32.4799771,52.6924342 L24.1132723,52.6924342 C23.7835365,52.6924342 23.5162328,52.9597379 23.5162328,53.2894737 C23.5162328,53.6192095 23.7835365,53.8865132 24.1132723,53.8865132 L32.4799771,53.8865132 C32.8097129,53.8865132 33.0770166,53.6192095 33.0770166,53.2894737 C33.0770166,52.9597379 32.8097129,52.6924342 32.4799771,52.6924342 Z" id="Stroke-280"></path>
                            <path d="M27.5279605,0.407608696 L27.5279605,5.9854119 C27.5279605,6.3151477 27.7952642,6.58245137 28.125,6.58245137 C28.4547358,6.58245137 28.7220395,6.3151477 28.7220395,5.9854119 L28.7220395,0.407608696 C28.7220395,0.0778728993 28.4547358,-0.189430778 28.125,-0.189430778 C27.7952642,-0.189430778 27.5279605,0.0778728993 27.5279605,0.407608696 Z" id="Stroke-282"></path>
                            <path d="M56.1856407,27.5279605 L50.6078375,27.5279605 C50.2781017,27.5279605 50.0107981,27.7952642 50.0107981,28.125 C50.0107981,28.4547358 50.2781017,28.7220395 50.6078375,28.7220395 L56.1856407,28.7220395 C56.5153765,28.7220395 56.7826802,28.4547358 56.7826802,28.125 C56.7826802,27.7952642 56.5153765,27.5279605 56.1856407,27.5279605 Z" id="Stroke-284"></path>
                            <path d="M0.407608696,28.7220395 L5.9854119,28.7220395 C6.3151477,28.7220395 6.58245137,28.4547358 6.58245137,28.125 C6.58245137,27.7952642 6.3151477,27.5279605 5.9854119,27.5279605 L0.407608696,27.5279605 C0.0778728993,27.5279605 -0.189430778,27.7952642 -0.189430778,28.125 C-0.189430778,28.4547358 0.0778728993,28.7220395 0.407608696,28.7220395 Z" id="Stroke-286"></path>
                            <path d="M6.17875182,7.02588204 L12.096801,12.9439312 C12.3299594,13.1770897 12.7079839,13.1770897 12.9411423,12.9439312 C13.1743008,12.7107728 13.1743008,12.3327483 12.9411423,12.0995899 L7.02309314,6.18154072 C6.78993473,5.94838231 6.41191024,5.94838231 6.17875182,6.18154072 C5.9455934,6.41469914 5.9455934,6.79272363 6.17875182,7.02588204 Z" id="Stroke-288"></path>
                            <path d="M49.5645785,6.18154072 L43.6465293,12.0995899 C43.4133709,12.3327483 43.4133709,12.7107728 43.6465293,12.9439312 C43.8796877,13.1770897 44.2577122,13.1770897 44.4908706,12.9439312 L50.4089198,7.02588204 C50.6420782,6.79272363 50.6420782,6.41469914 50.4089198,6.18154072 C50.1757614,5.94838231 49.7977369,5.94838231 49.5645785,6.18154072 Z" id="Stroke-290"></path>
                        </g>
                    </g>
                </g>
            </g>
        </g>
    </g>
</svg>