<?xml version="1.0" encoding="UTF-8"?>
<svg width="141px" height="110px" viewBox="0 0 141 110" version="1.1" xmlns="http://www.w3.org/2000/svg" xmlns:xlink="http://www.w3.org/1999/xlink">
    <!-- Generator: Sketch 46.2 (44496) - http://www.bohemiancoding.com/sketch -->
    <title>HIW-03-1_wide</title>
    <desc>Created with Sketch.</desc>
    <defs></defs>
    <g id="pages" stroke="none" stroke-width="1" fill="none" fill-rule="evenodd">
        <g id="[w]-3.1.0---Product---How-It-Works" transform="translate(-1219.000000, -651.000000)">
            <g id="graphic_HIW-01_wide" transform="translate(0.000000, 238.000000)">
                <g id="HIW_wide" transform="translate(828.000000, 71.000000)">
                    <g id="HIW-03-1_wide" transform="translate(392.000000, 343.000000)">
                        <g id="Group-1270-Copy" transform="translate(25.000000, 17.000000) scale(-1, 1) translate(-25.000000, -17.000000) " stroke="#FFFFFF" stroke-width="1.6" stroke-linecap="round" stroke-linejoin="round">
                            <path d="M0.378787879,33.2070707 L21.482684,12.1031746" id="Stroke-1700"></path>
                            <path d="M27.3448773,22.6551227 L49.6212121,0.378787879" id="Stroke-1701"></path>
                            <polyline id="Stroke-1702" points="14.4480519 33.2070707 0.378787879 33.2070707 0.378787879 19.1378066"></polyline>
                            <polyline id="Stroke-1703" points="49.6212121 14.4480519 49.6212121 0.378787879 35.5519481 0.378787879"></polyline>
                        </g>
                        <g id="icon_cloud-costs-copy" transform="translate(60.000000, 41.000000)" fill-rule="nonzero" fill="#FFFFFF">
                            <path d="M40,0 C27.2378496,0 16.6798753,9.65694071 15.4903015,22.131088 C7.38304698,20.9810501 0,27.2148652 0,35.4770094 C0,41.4396301 2.7492064,45.2967702 7.27894062,47.3713095 C8.80562835,48.0705059 10.4323465,48.515439 12.063554,48.7589832 C13.0739955,48.9098452 13.8924318,48.9589242 14.423379,48.9550094 C14.8731219,48.948539 15.220707,48.5909898 15.2143813,48.1562511 C15.2080556,47.7215124 14.8502146,47.3742108 14.4151211,47.3805313 C13.9579473,47.3839037 13.2198017,47.3396394 12.2964292,47.2017771 C10.8022987,46.9786989 9.3156444,46.5720755 7.93552392,45.9400043 C3.9410801,44.1106187 1.57577968,40.7920992 1.57577968,35.4770094 C1.57577968,27.9189891 8.57918902,22.278219 16.0489529,23.8260545 C16.5194596,23.9235498 16.9669778,23.5811364 16.995449,23.1018539 C17.7120693,11.0382855 27.773771,1.57449459 40,1.57449459 C49.0013417,1.57449459 57.0481677,6.74756588 60.841192,14.6976552 C60.9764406,14.9811329 61.2673679,15.157178 61.5814519,15.145599 C70.8342092,14.804487 78.4242203,22.1376555 78.4242203,31.2420634 C78.4242203,36.605223 76.4055847,40.5714543 72.8877471,43.3984559 C70.4288137,45.3745019 67.5397042,46.5788046 64.7661796,47.2014717 C64.3416247,47.2967859 64.0747856,47.7179423 64.1701776,48.1421509 C64.2655696,48.5663595 64.6870698,48.832981 65.1116246,48.7376668 C68.1002266,48.066714 71.2018427,46.7738296 73.8753264,44.6253669 C77.7549111,41.5076583 80,37.09649 80,31.2420634 C80,21.416142 71.9501094,13.471884 62.0383834,13.5603759 C57.8988536,5.32792112 49.4397378,0 40,0 Z" id="Stroke-5295"></path>
                            <path d="M56.3270261,48.9552239 C56.3270261,39.6098355 48.7483734,32.0311829 39.4029851,32.0311829 C30.0553017,32.0311829 22.4789441,39.6085873 22.4789441,48.9552239 C22.4789441,58.3041554 30.0540536,65.8792649 39.4029851,65.8792649 C48.7496217,65.8792649 56.3270261,58.3029073 56.3270261,48.9552239 Z M57.9104478,48.9552239 C57.9104478,59.1774559 49.6240724,67.4626866 39.4029851,67.4626866 C29.1795539,67.4626866 20.8955224,59.178655 20.8955224,48.9552239 C20.8955224,38.7341366 29.1807531,30.4477612 39.4029851,30.4477612 C49.6228731,30.4477612 57.9104478,38.7353359 57.9104478,48.9552239 Z" id="Stroke-5296"></path>
                            <g id="Group-32" transform="translate(34.029851, 36.417910)">
                                <path d="M0.449603833,15.8566815 C0.449603833,18.5792297 2.73900145,20.7726281 5.54511394,20.7726281 C8.35375581,20.7726281 10.640624,18.5803473 10.640624,15.8566815 C10.640624,13.1359139 8.35308044,10.9442933 5.54511394,10.9442933 C3.60792686,10.9442933 2.04164363,9.4418979 2.04164363,7.61200732 C2.04164363,5.77677923 3.60607203,4.27616304 5.54511394,4.27616304 C7.48648224,4.27616304 9.04858424,5.77544069 9.04858424,7.61200732 C9.04858424,8.04932313 9.40497449,8.40383765 9.84460414,8.40383765 C10.2842338,8.40383765 10.640624,8.04932313 10.640624,7.61200732 C10.640624,4.88788244 8.3532508,2.6925024 5.54511394,2.6925024 C2.73950703,2.6925024 0.449603833,4.88900165 0.449603833,7.61200732 C0.449603833,10.3296755 2.74136186,12.5279539 5.54511394,12.5279539 C7.48692247,12.5279539 9.04858424,14.0241309 9.04858424,15.8566815 C9.04858424,17.6923501 7.48739433,19.1889674 5.54511394,19.1889674 C3.60515967,19.1889674 2.04164363,17.6910129 2.04164363,15.8566815 C2.04164363,15.4193657 1.68525338,15.0648512 1.24562373,15.0648512 C0.805994082,15.0648512 0.449603833,15.4193657 0.449603833,15.8566815 Z" id="Stroke-5297"></path>
                                <path d="M4.57711443,19.9807978 L4.57711443,22.8145239 C4.57711443,23.2518397 4.93350468,23.6063542 5.37313433,23.6063542 C5.81276398,23.6063542 6.16915423,23.2518397 6.16915423,22.8145239 L6.16915423,19.9807978 C6.16915423,19.543482 5.81276398,19.1889674 5.37313433,19.1889674 C4.93350468,19.1889674 4.57711443,19.543482 4.57711443,19.9807978 Z" id="Stroke-5298"></path>
                                <path d="M4.57711443,1.04041198 L4.57711443,3.47348651 C4.57711443,3.91080232 4.93350468,4.26531683 5.37313433,4.26531683 C5.81276398,4.26531683 6.16915423,3.91080232 6.16915423,3.47348651 L6.16915423,1.04041198 C6.16915423,0.603096164 5.81276398,0.248581653 5.37313433,0.248581653 C4.93350468,0.248581653 4.57711443,0.603096164 4.57711443,1.04041198 Z" id="Stroke-5299"></path>
                            </g>
                        </g>
                    </g>
                </g>
            </g>
        </g>
    </g>
</svg>