<?xml version="1.0" encoding="UTF-8"?>
<svg width="116px" height="116px" viewBox="0 0 116 116" version="1.1" xmlns="http://www.w3.org/2000/svg" xmlns:xlink="http://www.w3.org/1999/xlink">
    <!-- Generator: Sketch 46.2 (44496) - http://www.bohemiancoding.com/sketch -->
    <title>ic_HIW_step-2</title>
    <desc>Created with Sketch.</desc>
    <defs></defs>
    <g id="pages" stroke="none" stroke-width="1" fill="none" fill-rule="evenodd">
        <g id="[w]-3.1.1---Product---How-It-Works---Overlay" transform="translate(-662.000000, -1127.000000)" fill-rule="nonzero" fill="#33A3AC">
            <g id="features-copy-4" transform="translate(0.000000, 838.000000)">
                <g id="ic_HIW_step-2" transform="translate(662.000000, 289.000000)">
                    <g id="Group-1357">
                        <path d="M113.101728,84.825 C113.101728,69.2050013 100.446456,56.5482718 84.825,56.5482718 C69.2035442,56.5482718 56.5482718,69.2050013 56.5482718,84.825 C56.5482718,100.45141 69.2000468,113.101728 84.825,113.101728 C100.449953,113.101728 113.101728,100.45141 113.101728,84.825 Z M116,84.825 C116,102.052156 102.05055,116 84.825,116 C67.5994502,116 53.65,102.052156 53.65,84.825 C53.65,67.6044048 67.6027982,53.65 84.825,53.65 C102.047202,53.65 116,67.6044048 116,84.825 Z" id="Stroke-4958"></path>
                        <path d="M72.1288707,84.5034511 C71.5503565,83.9254581 70.6123998,83.9254581 70.0338856,84.5034511 C69.4553715,85.0814441 69.4553715,86.0185559 70.0338856,86.5965489 L80.1629669,96.7165053 C80.741481,97.2944982 81.6794378,97.2944982 82.2579519,96.7165053 L102.516114,76.4765925 C103.094629,75.8985995 103.094629,74.9614877 102.516114,74.3834947 C101.9376,73.8055018 100.999643,73.8055018 100.421129,74.3834947 L81.2104594,93.5768586 L72.1288707,84.5034511 Z" id="Stroke-4959"></path>
                        <path d="M48.575,39.1846243 C73.8789069,39.1846243 94.2481491,30.7175985 94.2481491,21.025 C94.2481491,11.3386793 73.8708432,2.86537566 48.575,2.86537566 C23.2791568,2.86537566 2.90185091,11.3386793 2.90185091,21.025 C2.90185091,30.7175985 23.2710931,39.1846243 48.575,39.1846243 Z M48.575,42.05 C21.8246629,42.05 0,32.9779892 0,21.025 C0,9.07855911 21.8328746,0 48.575,0 C75.3171254,0 97.15,9.07855911 97.15,21.025 C97.15,32.9779892 75.3253371,42.05 48.575,42.05 Z" id="Stroke-4960"></path>
                        <path d="M47.8701289,59.3899128 C22.9334066,59.3899128 2.85974219,50.6430194 2.85974219,40.6300436 C2.85974219,39.8126381 2.2195671,39.15 1.4298711,39.15 C0.640175095,39.15 0,39.8126381 0,40.6300436 C0,52.9781246 21.5079656,62.35 47.8701289,62.35 C48.6598249,62.35 49.3,61.6873619 49.3,60.8699564 C49.3,60.0525509 48.6598249,59.3899128 47.8701289,59.3899128 Z" id="Stroke-4961"></path>
                        <path d="M40.7128114,81.1098994 C18.9501475,79.5902296 2.86537193,71.382727 2.86537193,62.396688 C2.86537193,61.57009 2.22393657,60.9 1.43268596,60.9 C0.641435355,60.9 0,61.57009 0,62.396688 C0,73.6047349 17.3970229,82.4818318 40.5217073,84.0966104 C41.3111962,84.1517398 41.9939835,83.527833 42.0467554,82.7030755 C42.0995273,81.878318 41.5023002,81.1650288 40.7128114,81.1098994 Z" id="Stroke-4962"></path>
                        <path d="M43.5663398,102.95352 C20.4648878,101.936545 2.89441219,93.7639883 2.89441219,84.6956501 L2.89441219,20.2989263 C2.89441219,19.4987064 2.24647595,18.85 1.44720609,18.85 C0.647936239,18.85 0,19.4987064 0,20.2989263 L0,84.6956501 C0,95.9613798 18.9379225,104.769977 43.4391958,105.848575 C44.2376941,105.883727 44.9134671,105.264143 44.9485769,104.464695 C44.9836868,103.665248 44.3648382,102.988671 43.5663398,102.95352 Z" id="Stroke-4963"></path>
                        <path d="M94.25,20.2679204 L94.25,42.0820796 C94.25,42.8651754 94.8991871,43.5 95.7,43.5 C96.5008129,43.5 97.15,42.8651754 97.15,42.0820796 L97.15,20.2679204 C97.15,19.4848246 96.5008129,18.85 95.7,18.85 C94.8991871,18.85 94.25,19.4848246 94.25,20.2679204 Z" id="Stroke-4964"></path>
                    </g>
                </g>
            </g>
        </g>
    </g>
</svg>