<?xml version="1.0" encoding="UTF-8"?>
<svg width="116px" height="101px" viewBox="0 0 116 101" version="1.1" xmlns="http://www.w3.org/2000/svg" xmlns:xlink="http://www.w3.org/1999/xlink">
    <!-- Generator: Sketch 46.2 (44496) - http://www.bohemiancoding.com/sketch -->
    <title>ic_HIW_step-3</title>
    <desc>Created with Sketch.</desc>
    <defs></defs>
    <g id="pages" stroke="none" stroke-width="1" fill="none" fill-rule="evenodd">
        <g id="[w]-3.1.1---Product---How-It-Works---Overlay" transform="translate(-1097.000000, -1135.000000)" fill-rule="nonzero" fill="#33A3AC">
            <g id="features-copy-4" transform="translate(0.000000, 838.000000)">
                <g id="ic_HIW_step-3" transform="translate(1097.000000, 297.000000)">
                    <g id="Group-1336">
                        <path d="M66.9980237,24.6329051 C66.9980237,23.9365461 66.4335132,23.3720356 65.7371542,23.3720356 C65.0407951,23.3720356 64.4762846,23.9365461 64.4762846,24.6329051 L64.4762846,53.0024704 C64.4762846,53.6988294 65.0407951,54.2633399 65.7371542,54.2633399 L91.527668,54.2633399 C92.224027,54.2633399 92.7885375,53.6988294 92.7885375,53.0024704 C92.7885375,52.3061113 92.224027,51.7416008 91.527668,51.7416008 L66.9980237,51.7416008 L66.9980237,24.6329051 Z" id="Stroke-6349"></path>
                        <path d="M2.30997646,34.2192733 C1.92370597,33.6398675 1.14087071,33.4833005 0.56146497,33.869571 C-0.0179407679,34.2558415 -0.17450782,35.0386767 0.211762672,35.6180825 L15.686071,58.8295449 C16.146576,59.5203025 17.1373968,59.5852083 17.6840789,58.9604287 L35.7374386,38.3280177 C36.1959942,37.8039541 36.1428895,37.0073838 35.618826,36.5488282 C35.0947624,36.0902726 34.2981921,36.1433773 33.8396365,36.6674408 L16.8707577,56.0604452 L2.30997646,34.2192733 Z" id="Stroke-6350"></path>
                        <path d="M65.7371542,100.686265 C93.4998395,100.686265 116,78.1877403 116,50.423419 C116,22.6658918 93.4963176,0.160573123 65.7371542,0.160573123 C37.9779907,0.160573123 15.4743083,22.6658918 15.4743083,50.423419 L15.4743083,58.1296245 C15.4743083,58.8259835 16.0388188,59.3904941 16.7351779,59.3904941 C17.4315369,59.3904941 17.9960474,58.8259835 17.9960474,58.1296245 L17.9960474,50.423419 C17.9960474,24.0585689 39.3707499,2.68231225 65.7371542,2.68231225 C92.1035584,2.68231225 113.478261,24.0585689 113.478261,50.423419 C113.478261,76.7949812 92.1071625,98.1645257 65.7371542,98.1645257 C65.0407951,98.1645257 64.4762846,98.7290362 64.4762846,99.4253953 C64.4762846,100.121754 65.0407951,100.686265 65.7371542,100.686265 Z" id="Stroke-6351"></path>
                    </g>
                </g>
            </g>
        </g>
    </g>
</svg>