<?xml version="1.0" encoding="UTF-8"?>
<svg width="32px" height="23px" viewBox="0 0 32 23" version="1.1" xmlns="http://www.w3.org/2000/svg" xmlns:xlink="http://www.w3.org/1999/xlink">
    <!-- Generator: Sketch 46.2 (44496) - http://www.bohemiancoding.com/sketch -->
    <title>ic_menu_active</title>
    <desc>Created with Sketch.</desc>
    <defs></defs>
    <g id="Symbols" stroke="none" stroke-width="1" fill="none" fill-rule="evenodd">
        <g id="header-/-mobile-/-active" transform="translate(-264.000000, -18.000000)" stroke="#30A289" fill="#30A289">
            <g id="menu-active" transform="translate(250.000000, 0.000000)">
                <g id="icon-/-menu-/-active" transform="translate(15.000000, 19.000000)">
                    <g>
                        <path d="M29.1078378,0 L0.810810811,0 C0.363012365,0 0,0.44771525 0,1 C0,1.55228475 0.363012365,2 0.810810811,2 L29.1078378,2 C29.5556363,2 29.9186486,1.55228475 29.9186486,1 C29.9186486,0.44771525 29.5556363,0 29.1078378,0 Z" id="Stroke-4443" fill-rule="nonzero"></path>
                        <path d="M29.1891892,9.54545455 L0.892162162,9.54545455 C0.444363716,9.54545455 0.0813513514,9.9931698 0.0813513514,10.5454545 C0.0813513514,11.0977393 0.444363716,11.5454545 0.892162162,11.5454545 L29.1891892,11.5454545 C29.6369876,11.5454545 30,11.0977393 30,10.5454545 C30,9.9931698 29.6369876,9.54545455 29.1891892,9.54545455 Z" id="Stroke-4444" fill-rule="nonzero"></path>
                        <path d="M29.1891892,19.0909091 L0.892162162,19.0909091 C0.444363716,19.0909091 0.0813513514,19.5386243 0.0813513514,20.0909091 C0.0813513514,20.6431938 0.444363716,21.0909091 0.892162162,21.0909091 L29.1891892,21.0909091 C29.6369876,21.0909091 30,20.6431938 30,20.0909091 C30,19.5386243 29.6369876,19.0909091 29.1891892,19.0909091 Z" id="Stroke-4445" fill-rule="nonzero"></path>
                    </g>
                </g>
            </g>
        </g>
    </g>
</svg>