<?xml version="1.0" encoding="UTF-8"?>
<svg width="118px" height="83px" viewBox="0 0 118 83" version="1.1" xmlns="http://www.w3.org/2000/svg" xmlns:xlink="http://www.w3.org/1999/xlink">
    <!-- Generator: Sketch 46.2 (44496) - http://www.bohemiancoding.com/sketch -->
    <title>icon_optimize</title>
    <desc>Created with Sketch.</desc>
    <defs></defs>
    <g id="components" stroke="none" stroke-width="1" fill="none" fill-rule="evenodd">
        <g id="content_features_iconography" transform="translate(-1096.000000, -1329.000000)" fill-rule="nonzero" fill="#33A3AC">
            <g id="wide-hover" transform="translate(0.000000, 1050.000000)">
                <g id="col-3" transform="translate(960.000000, 205.000000)">
                    <g id="icon-/-optimize" transform="translate(137.000000, 75.000000)">
                        <path d="M64,58 C64,54.6853083 61.3134548,52 58,52 C54.6865452,52 52,54.6853083 52,58 C52,61.3115729 54.6884271,64 58,64 C61.3115729,64 64,61.3115729 64,58 Z M67,58 C67,62.9684271 62.9684271,67 58,67 C53.0315729,67 49,62.9684271 49,58 C49,53.0281447 53.0300002,49 58,49 C62.9699998,49 67,53.0281447 67,58 Z" id="Stroke-3082"></path>
                        <path d="M64.363053,53.7557673 L89.113053,29.0107673 C89.6988986,28.4250401 89.6989946,27.4752926 89.1132673,26.889447 C88.5275401,26.3036014 87.5777926,26.3035054 86.991947,26.8892327 L62.241947,51.6342327 C61.6561014,52.2199599 61.6560054,53.1697074 62.2417327,53.755553 C62.8274599,54.3413986 63.7772074,54.3414946 64.363053,53.7557673 Z" id="Stroke-3083"></path>
                        <path d="M10.5,61.5689655 L20.5,61.5689655 C21.3284271,61.5689655 22,60.8973926 22,60.0689655 C22,59.2405384 21.3284271,58.5689655 20.5,58.5689655 L10.5,58.5689655 C9.67157288,58.5689655 9,59.2405384 9,60.0689655 C9,60.8973926 9.67157288,61.5689655 10.5,61.5689655 Z" id="Stroke-3084"></path>
                        <path d="M105.5,58.5689655 L95.5,58.5689655 C94.6715729,58.5689655 94,59.2405384 94,60.0689655 C94,60.8973926 94.6715729,61.5689655 95.5,61.5689655 L105.5,61.5689655 C106.328427,61.5689655 107,60.8973926 107,60.0689655 C107,59.2405384 106.328427,58.5689655 105.5,58.5689655 Z" id="Stroke-3085"></path>
                        <path d="M101.308274,38.437557 L92.0682736,42.262557 C91.3028384,42.5794173 90.9391967,43.4567912 91.256057,44.2222264 C91.5729173,44.9876616 92.4502912,45.3513033 93.2157264,45.034443 L102.455726,41.209443 C103.221162,40.8925827 103.584803,40.0152088 103.267943,39.2497736 C102.951083,38.4843384 102.073709,38.1206967 101.308274,38.437557 Z" id="Stroke-3086"></path>
                        <path d="M74.788057,13.5417736 L70.963057,22.7817736 C70.6461967,23.5472088 71.0098384,24.4245827 71.7752736,24.741443 C72.5407088,25.0583033 73.4180827,24.6946616 73.734943,23.9292264 L77.559943,14.6892264 C77.8768033,13.9237912 77.5131616,13.0464173 76.7477264,12.729557 C75.9822912,12.4126967 75.1049173,12.7763384 74.788057,13.5417736 Z" id="Stroke-3087"></path>
                        <path d="M56.5,10.5 L56.5,20.5 C56.5,21.3284271 57.1715729,22 58,22 C58.8284271,22 59.5,21.3284271 59.5,20.5 L59.5,10.5 C59.5,9.67157288 58.8284271,9 58,9 C57.1715729,9 56.5,9.67157288 56.5,10.5 Z" id="Stroke-3088"></path>
                        <path d="M38.440057,14.6892264 L42.265057,23.9292264 C42.5819173,24.6946616 43.4592912,25.0583033 44.2247264,24.741443 C44.9901616,24.4245827 45.3538033,23.5472088 45.036943,22.7817736 L41.211943,13.5417736 C40.8950827,12.7763384 40.0177088,12.4126967 39.2522736,12.729557 C38.4868384,13.0464173 38.1231967,13.9237912 38.440057,14.6892264 Z" id="Stroke-3089"></path>
                        <path d="M23.3542149,25.468034 L30.4142149,32.543034 C30.9993793,33.1294417 31.9491263,33.1304496 32.535534,32.5452851 C33.1219417,31.9601207 33.1229496,31.0103737 32.5377851,30.423966 L25.4777851,23.348966 C24.8926207,22.7625583 23.9428737,22.7615504 23.356466,23.3467149 C22.7700583,23.9318793 22.7690504,24.8816263 23.3542149,25.468034 Z" id="Stroke-3090"></path>
                        <path d="M13.5440084,41.2093332 L22.7790084,45.0343332 C23.544383,45.35134 24.4218264,44.9878661 24.7388332,44.2224916 C25.05584,43.457117 24.6923661,42.5796736 23.9269916,42.2626668 L14.6919916,38.4376668 C13.926617,38.12066 13.0491736,38.4841339 12.7321668,39.2495084 C12.41516,40.014883 12.7786339,40.8923264 13.5440084,41.2093332 Z" id="Stroke-3091"></path>
                        <path d="M58,-1 C90.5867205,-1 117,25.4148661 117,58 L117,80.5 C117,81.3284271 116.328427,82 115.5,82 L0.5,82 C-0.328427125,82 -1,81.3284271 -1,80.5 L-1,58 C-1,25.4148661 25.4132795,-1 58,-1 Z M114,79 L114,58 C114,27.07168 88.9298259,2 58,2 C27.0701741,2 2,27.07168 2,58 L2,79 L114,79 Z" id="Stroke-3092"></path>
                    </g>
                </g>
            </g>
        </g>
    </g>
</svg>