<?xml version="1.0" encoding="UTF-8"?>
<svg width="72px" height="72px" viewBox="0 0 72 72" version="1.1" xmlns="http://www.w3.org/2000/svg" xmlns:xlink="http://www.w3.org/1999/xlink">
    <!-- Generator: Sketch 46.2 (44496) - http://www.bohemiancoding.com/sketch -->
    <title>icon / unlimited vendors</title>
    <desc>Created with Sketch.</desc>
    <defs></defs>
    <g id="components" stroke="none" stroke-width="1" fill="none" fill-rule="evenodd" stroke-linecap="round" stroke-linejoin="round">
        <g id="content_two_iconography" transform="translate(-229.000000, -493.000000)" stroke="#33A3AC">
            <g id="features-wide" transform="translate(0.000000, 150.000000)">
                <g id="feature-3" transform="translate(230.000000, 344.000000)">
                    <g id="icon-/-unlimited-vendors">
                        <g>
                            <path d="M30.4963235,24.4914216 C30.4963235,27.7971201 27.7971201,30.4963235 24.4914216,30.4963235 L6.47671569,30.4963235 C3.17401961,30.4963235 0.471813725,27.7971201 0.471813725,24.4914216 L0.471813725,6.47671569 C0.471813725,3.17401961 3.17401961,0.471813725 6.47671569,0.471813725 L24.4914216,0.471813725 C27.7971201,0.471813725 30.4963235,3.17401961 30.4963235,6.47671569 L30.4963235,24.4914216 L30.4963235,24.4914216 Z" id="Stroke-202" stroke-width="2"></path>
                            <path d="M0.471813725,8.87867647 L30.4963235,8.87867647" id="Stroke-203" stroke-width="2"></path>
                            <path d="M39.5036765,24.4914216 C39.5036765,27.7971201 42.2058824,30.4963235 45.5085784,30.4963235 L63.5232843,30.4963235 C66.8289828,30.4963235 69.5281863,27.7971201 69.5281863,24.4914216 L69.5281863,6.47671569 C69.5281863,3.17401961 66.8289828,0.471813725 63.5232843,0.471813725 L45.5085784,0.471813725 C42.2058824,0.471813725 39.5036765,3.17401961 39.5036765,6.47671569 L39.5036765,24.4914216 L39.5036765,24.4914216 Z" id="Stroke-204" stroke-width="2"></path>
                            <path d="M69.5281863,8.87867647 L39.5036765,8.87867647" id="Stroke-205" stroke-width="2"></path>
                            <path d="M30.4963235,63.5232843 C30.4963235,66.8289828 27.7971201,69.5281863 24.4914216,69.5281863 L6.47671569,69.5281863 C3.17401961,69.5281863 0.471813725,66.8289828 0.471813725,63.5232843 L0.471813725,45.5085784 C0.471813725,42.2058824 3.17401961,39.5036765 6.47671569,39.5036765 L24.4914216,39.5036765 C27.7971201,39.5036765 30.4963235,42.2058824 30.4963235,45.5085784 L30.4963235,63.5232843 L30.4963235,63.5232843 Z" id="Stroke-206" stroke-width="2"></path>
                            <path d="M0.471813725,48.5110294 L30.4963235,48.5110294" id="Stroke-207" stroke-width="2"></path>
                            <path d="M39.5036765,63.5232843 C39.5036765,66.8289828 42.2058824,69.5281863 45.5085784,69.5281863 L63.5232843,69.5281863 C66.8289828,69.5281863 69.5281863,66.8289828 69.5281863,63.5232843 L69.5281863,45.5085784 C69.5281863,42.2058824 66.8289828,39.5036765 63.5232843,39.5036765 L45.5085784,39.5036765 C42.2058824,39.5036765 39.5036765,42.2058824 39.5036765,45.5085784 L39.5036765,63.5232843 L39.5036765,63.5232843 Z" id="Stroke-208" stroke-width="2"></path>
                            <path d="M69.5281863,48.5110294 L39.5036765,48.5110294" id="Stroke-209" stroke-width="2"></path>
                        </g>
                    </g>
                </g>
            </g>
        </g>
    </g>
</svg>