<?xml version="1.0" encoding="UTF-8"?>
<svg width="44px" height="44px" viewBox="0 0 44 44" version="1.1" xmlns="http://www.w3.org/2000/svg" xmlns:xlink="http://www.w3.org/1999/xlink">
    <!-- Generator: Sketch 46.2 (44496) - http://www.bohemiancoding.com/sketch -->
    <title>icon_social_linkedin_active</title>
    <desc>Created with Sketch.</desc>
    <defs>
        <polygon id="path-1" points="28.3685926 14.1839093 28.3685926 8.14814815e-05 0 8.14814815e-05 0 14.1839093 0 28.367737 28.3685926 28.367737"></polygon>
    </defs>
    <g id="components" stroke="none" stroke-width="1" fill="none" fill-rule="evenodd">
        <g id="footer" transform="translate(-1316.000000, -395.000000)">
            <g id="Group-5" transform="translate(0.000000, 360.000000)">
                <g id="icon-/-social-/-linkedin-/-active" transform="translate(1316.000000, 35.000000)">
                    <g>
                        <path d="M22,44 C34.1502645,44 44,34.1502645 44,22 C44,9.8497355 34.1502645,0 22,0 C9.8497355,0 0,9.8497355 0,22 C0,34.1502645 9.8497355,44 22,44 Z" id="Oval-40-Copy-3" fill="#FFFFFF"></path>
                        <g id="social-/-linkedin" transform="translate(8.000000, 7.000000)">
                            <mask id="mask-2" fill="white">
                                <use xlink:href="#path-1"></use>
                            </mask>
                            <g id="Clip-2"></g>
                            <path d="M24.1714815,24.1738852 L19.9682593,24.1738852 L19.9682593,17.5909963 C19.9682593,16.0196259 19.9372963,14.0013296 17.7812963,14.0013296 C15.5910741,14.0013296 15.257,15.7104037 15.257,17.4757 L15.257,24.1738852 L11.0537778,24.1738852 L11.0537778,10.635737 L15.0879259,10.635737 L15.0879259,12.4849593 L15.1445556,12.4849593 C15.7063704,11.4208111 17.0793333,10.2988111 19.1261481,10.2988111 C23.3851852,10.2988111 24.1714815,13.1021815 24.1714815,16.7492926 L24.1714815,24.1738852 Z M6.31033333,8.78447778 C4.95896296,8.78447778 3.86914815,7.69181111 3.86914815,6.34410741 C3.86914815,4.99884815 4.95896296,3.90536667 6.31033333,3.90536667 C7.65559259,3.90536667 8.74988889,4.99884815 8.74988889,6.34410741 C8.74988889,7.69181111 7.65559259,8.78447778 6.31033333,8.78447778 L6.31033333,8.78447778 Z M4.20322222,24.1738852 L8.41581481,24.1738852 L8.41581481,10.635737 L4.20322222,10.635737 L4.20322222,24.1738852 Z" id="Fill-1" fill="#00909B" mask="url(#mask-2)"></path>
                        </g>
                    </g>
                </g>
            </g>
        </g>
    </g>
</svg>