<?xml version="1.0" encoding="UTF-8"?>
<svg width="352px" height="80px" viewBox="0 0 352 80" version="1.1" xmlns="http://www.w3.org/2000/svg" xmlns:xlink="http://www.w3.org/1999/xlink">
    <!-- Generator: Sketch 46.2 (44496) - http://www.bohemiancoding.com/sketch -->
    <title>logo_hz_black</title>
    <desc>Created with Sketch.</desc>
    <defs></defs>
    <g id="pages" stroke="none" stroke-width="1" fill="none" fill-rule="evenodd">
        <g id="logo_hz_black" fill="#151515">
            <g id="logo-/-solid-/-black">
                <g id="Page-1-Copy-2" transform="translate(-0.000000, 0.000000)">
                    <polygon id="Fill-1" points="40 26.667 53.3333333 53.3325556 66.6666667 80.0003333 80 53.3325556 66.6666667 26.667"></polygon>
                    <polygon id="Fill-2" points="26.667 0 0.000333333333 53.3333333 13.3325556 80 40.0003333 80 53.3325556 53.3333333 26.667 53.3333333 40.0003333 26.6666667 53.3325556 0"></polygon>
                </g>
            </g>
            <path d="M130.642963,51.2711111 L129.078519,47.5022222 L117.416296,47.5022222 L115.816296,51.2711111 L109.62963,51.2711111 L119.976296,27.0933333 L126.482963,27.0933333 L136.865185,51.2711111 L130.642963,51.2711111 Z M119.442963,42.7377778 L127.051852,42.7377778 L123.282963,33.7066667 L119.442963,42.7377778 Z M159.699753,27.0933333 C165.88642,27.0933333 168.873087,31.7155556 168.873087,36.4088889 C168.873087,41.1733333 165.850864,45.7955556 159.664198,45.7955556 L154.401976,45.7955556 L154.401976,51.2711111 L148.535309,51.2711111 L148.535309,27.0933333 L159.699753,27.0933333 Z M159.024198,32.4977778 L154.401976,32.4977778 L154.401976,40.4266667 L159.024198,40.4266667 C161.370864,40.4266667 162.970864,39.04 162.970864,36.4088889 C162.970864,33.8133333 161.370864,32.5333333 159.024198,32.4977778 Z M192.240988,27.0933333 C198.427655,27.0933333 201.414321,31.7155556 201.414321,36.4088889 C201.414321,41.1733333 198.392099,45.7955556 192.205433,45.7955556 L186.94321,45.7955556 L186.94321,51.2711111 L181.076544,51.2711111 L181.076544,27.0933333 L192.240988,27.0933333 Z M191.565433,32.4977778 L186.94321,32.4977778 L186.94321,40.4266667 L191.565433,40.4266667 C193.912099,40.4266667 195.512099,39.04 195.512099,36.4088889 C195.512099,33.8133333 193.912099,32.5333333 191.565433,32.4977778 Z M219.626667,27.0933333 L213.795556,27.0933333 L213.795556,51.2711111 L232.320001,51.2711111 L232.320001,45.8666667 L219.626667,45.8666667 L219.626667,27.0933333 Z M254.052347,26.6666667 C260.914569,26.6666667 266.532347,32.32 266.532347,39.1822222 C266.532347,46.08 260.914569,51.6977778 254.052347,51.6977778 C247.119013,51.6977778 241.572347,46.08 241.572347,39.1822222 C241.572347,32.32 247.119013,26.6666667 254.052347,26.6666667 Z M254.052347,32.1066667 C250.10568,32.1066667 246.90568,35.2711111 246.90568,39.1822222 C246.90568,43.1288889 250.10568,46.2933333 254.052347,46.2933333 C257.927902,46.2933333 261.127902,43.1288889 261.127902,39.1822222 C261.127902,35.2711111 257.927902,32.1066667 254.052347,32.1066667 Z M290.220248,26.6666667 C282.611359,26.6666667 277.100248,32.4622222 277.100248,39.1822222 C277.100248,45.6888889 282.255804,51.6977778 290.255804,51.6977778 C297.331359,51.6977778 301.135804,46.72 301.313581,46.3644444 L301.313581,37.4044444 L288.798026,37.4044444 L288.798026,41.8844444 L296.158026,41.8844444 L296.158026,44.2311111 C294.878026,45.44 292.815804,46.2577778 290.220248,46.2577778 C285.989137,46.2577778 282.966915,42.9511111 282.966915,39.1111111 C282.966915,35.0933333 285.918026,32.1422222 290.149137,32.1422222 C292.92247,32.1422222 294.806915,32.9955556 296.015804,34.5244444 L301.064693,31.9644444 C298.646915,28.7644444 294.878026,26.6666667 290.220248,26.6666667 Z M319.454816,27.0933333 L313.623705,27.0933333 L313.623705,51.2711111 L319.454816,51.2711111 L319.454816,27.0933333 Z M332.760495,27.0933333 L332.760495,51.2711111 L351.28494,51.2711111 L351.28494,45.8666667 L338.591607,45.8666667 L338.591607,41.7066667 L349.187162,41.7066667 L349.187162,36.6577778 L338.591607,36.6577778 L338.591607,32.4977778 L351.28494,32.4977778 L351.28494,27.0933333 L332.760495,27.0933333 Z" id="applogie_wordmark_black"></path>
        </g>
    </g>
</svg>