<?xml version="1.0" encoding="UTF-8"?>
<svg width="201px" height="44px" viewBox="0 0 201 44" version="1.1" xmlns="http://www.w3.org/2000/svg" xmlns:xlink="http://www.w3.org/1999/xlink">
    <!-- Generator: Sketch 46.2 (44496) - http://www.bohemiancoding.com/sketch -->
    <title>logo_horizontal_white</title>
    <desc>Created with Sketch.</desc>
    <defs></defs>
    <g id="Symbols" stroke="none" stroke-width="1" fill="none" fill-rule="evenodd">
        <g id="footer-/-wide" transform="translate(-80.000000, -33.000000)" fill="#FFFFFF">
            <g id="logo-/-horizontal-/-white">
                <g transform="translate(80.000000, 33.000000)">
                    <g>
                        <g id="logo-/-solid-/-white">
                            <g id="Page-1">
                                <polygon id="Fill-1" points="23 14.66685 30.6666667 29.3329056 38.3333333 44.0001833 46 29.3329056 38.3333333 14.66685"></polygon>
                                <polygon id="Fill-2" points="15.333525 0 0.000191666667 29.3333333 7.66621944 44 23.0001917 44 30.6662194 29.3333333 15.333525 29.3333333 23.0001917 14.6666667 30.6662194 0"></polygon>
                            </g>
                        </g>
                        <path d="M73.8647083,28.5324444 L72.9639306,26.4595556 L66.2490417,26.4595556 L65.3277917,28.5324444 L61.765625,28.5324444 L67.7230417,15.2346667 L71.4694583,15.2346667 L77.4473472,28.5324444 L73.8647083,28.5324444 Z M67.4159583,23.8391111 L71.7970139,23.8391111 L69.6269583,18.872 L67.4159583,23.8391111 Z M90.5950634,15.2346667 C94.1572301,15.2346667 95.8768967,17.7768889 95.8768967,20.3582222 C95.8768967,22.9786667 94.1367579,25.5208889 90.5745912,25.5208889 L87.5447023,25.5208889 L87.5447023,28.5324444 L84.1667856,28.5324444 L84.1667856,15.2346667 L90.5950634,15.2346667 Z M90.2060912,18.2071111 L87.5447023,18.2071111 L87.5447023,22.568 L90.2060912,22.568 C91.5572579,22.568 92.4785079,21.8053333 92.4785079,20.3582222 C92.4785079,18.9306667 91.5572579,18.2266667 90.2060912,18.2071111 Z M109.331696,15.2346667 C112.893863,15.2346667 114.61353,17.7768889 114.61353,20.3582222 C114.61353,22.9786667 112.873391,25.5208889 109.311224,25.5208889 L106.281335,25.5208889 L106.281335,28.5324444 L102.903418,28.5324444 L102.903418,15.2346667 L109.331696,15.2346667 Z M108.942724,18.2071111 L106.281335,18.2071111 L106.281335,22.568 L108.942724,22.568 C110.293891,22.568 111.215141,21.8053333 111.215141,20.3582222 C111.215141,18.9306667 110.293891,18.2266667 108.942724,18.2071111 Z M125.099857,15.2346667 L121.742412,15.2346667 L121.742412,28.5324444 L132.40844,28.5324444 L132.40844,25.56 L125.099857,25.56 L125.099857,15.2346667 Z M144.921518,15 C148.872656,15 152.107268,18.1093333 152.107268,21.8835556 C152.107268,25.6773333 148.872656,28.7671111 144.921518,28.7671111 C140.929434,28.7671111 137.735768,25.6773333 137.735768,21.8835556 C137.735768,18.1093333 140.929434,15 144.921518,15 Z M144.921518,17.992 C142.649101,17.992 140.806601,19.7324444 140.806601,21.8835556 C140.806601,24.0542222 142.649101,25.7946667 144.921518,25.7946667 C147.15299,25.7946667 148.99549,24.0542222 148.99549,21.8835556 C148.99549,19.7324444 147.15299,17.992 144.921518,17.992 Z M165.746317,15 C161.365261,15 158.192067,18.1875556 158.192067,21.8835556 C158.192067,25.4622222 161.160539,28.7671111 165.766789,28.7671111 C169.840761,28.7671111 172.031289,26.0293333 172.13365,25.8337778 L172.13365,20.9057778 L164.927428,20.9057778 L164.927428,23.3697778 L169.165178,23.3697778 L169.165178,24.6604444 C168.428178,25.3253333 167.240789,25.7751111 165.746317,25.7751111 C163.310123,25.7751111 161.569984,23.9564444 161.569984,21.8444444 C161.569984,19.6346667 163.269178,18.0115556 165.705373,18.0115556 C167.302206,18.0115556 168.387234,18.4808889 169.083289,19.3217778 L171.990345,17.9137778 C170.598234,16.1537778 168.428178,15 165.746317,15 Z M182.579033,15.2346667 L179.221589,15.2346667 L179.221589,28.5324444 L182.579033,28.5324444 L182.579033,15.2346667 Z M190.240194,15.2346667 L190.240194,28.5324444 L200.906222,28.5324444 L200.906222,25.56 L193.597638,25.56 L193.597638,23.272 L199.698361,23.272 L199.698361,20.4951111 L193.597638,20.4951111 L193.597638,18.2071111 L200.906222,18.2071111 L200.906222,15.2346667 L190.240194,15.2346667 Z" id="applogie_wordmark_white"></path>
                    </g>
                </g>
            </g>
        </g>
    </g>
</svg>