<?xml version="1.0" encoding="UTF-8" standalone="no"?>
<svg
   xmlns:dc="http://purl.org/dc/elements/1.1/"
   xmlns:cc="http://creativecommons.org/ns#"
   xmlns:rdf="http://www.w3.org/1999/02/22-rdf-syntax-ns#"
   xmlns:svg="http://www.w3.org/2000/svg"
   xmlns="http://www.w3.org/2000/svg"
   xmlns:sodipodi="http://sodipodi.sourceforge.net/DTD/sodipodi-0.dtd"
   xmlns:inkscape="http://www.inkscape.org/namespaces/inkscape"
   width="118px"
   height="80px"
   viewBox="0 0 118 80"
   version="1.1"
   id="svg2"
   inkscape:version="0.91 r13725"
   sodipodi:docname="HIW-02-2_wide.svg">
  <metadata
     id="metadata32">
    <rdf:RDF>
      <cc:Work
         rdf:about="">
        <dc:format>image/svg+xml</dc:format>
        <dc:type
           rdf:resource="http://purl.org/dc/dcmitype/StillImage" />
      </cc:Work>
    </rdf:RDF>
  </metadata>
  <sodipodi:namedview
     pagecolor="#ffffff"
     bordercolor="#666666"
     borderopacity="1"
     objecttolerance="10"
     gridtolerance="10"
     guidetolerance="10"
     inkscape:pageopacity="0"
     inkscape:pageshadow="2"
     inkscape:window-width="1600"
     inkscape:window-height="848"
     id="namedview30"
     showgrid="false"
     inkscape:zoom="2.440678"
     inkscape:cx="86.041667"
     inkscape:cy="45.091675"
     inkscape:window-x="-8"
     inkscape:window-y="-8"
     inkscape:window-maximized="1"
     inkscape:current-layer="svg2" />
  <!-- Generator: Sketch 46.2 (44496) - http://www.bohemiancoding.com/sketch -->
  <title
     id="title4">HIW-02-2_wide</title>
  <desc
     id="desc6">Created with Sketch.</desc>
  <defs
     id="defs8" />
  <g
     id="pages"
     inkscape:export-xdpi="94.279999"
     inkscape:export-ydpi="94.279999"
     stroke-width="1"
     stroke="none"
     fill-rule="evenodd"
     fill="none">
    <g
       id="[w]-3.1.1---Product---How-It-Works---Overlay"
       transform="translate(-791.000000, -599.000000)">
      <g
         id="graphic-/-hover"
         transform="translate(616.000000, 258.000000)">
        <g
           id="Group-29"
           transform="translate(0.000000, 302.000000)">
          <g
             id="HIW-02-2_wide"
             transform="translate(174.000000, 40.000000)">
            <g
               id="Group-1270"
               transform="translate(69.269036, 0.000000)"
               stroke-linejoin="round"
               stroke-linecap="round"
               stroke="#151515">
              <path
                 d="M0.369173973,32.3882662 L20.9374382,11.8047402"
                 id="Stroke-1700" />
              <path
                 d="M26.6508449,22.0965032 L48.3617905,0.369447904"
                 id="Stroke-1701" />
              <polyline
                 id="Stroke-1702"
                 points="14.0813501 32.3882662 0.369173973 32.3882662 0.369173973 18.6659155" />
              <polyline
                 id="Stroke-1703"
                 points="48.3617905 14.0917986 48.3617905 0.369447904 34.6496143 0.369447904" />
            </g>
            <g
               id="icon_subscription-costs-copy"
               transform="translate(0.919355, 18.000000)"
               fill-rule="nonzero"
               fill="#33A3AC">
              <path
                 d="M6.29677419,1.57419355 L32.5183836,1.57419355 L46.9306452,15.9864551 L46.9306452,56.966129 L6.29677419,56.966129 L6.29677419,36.3561343 C6.29677419,36.0301082 6.03247777,35.7658117 5.70645161,35.7658117 C5.38042545,35.7658117 5.11612903,36.0301082 5.11612903,36.3561343 L5.11612903,57.5564516 C5.11612903,57.8824778 5.38042545,58.1467742 5.70645161,58.1467742 L47.5209677,58.1467742 C47.8469939,58.1467742 48.1112903,57.8824778 48.1112903,57.5564516 L48.1112903,15.7419355 C48.1112903,15.5853722 48.0490958,15.4352213 47.9383888,15.3245144 L33.1803243,0.566449868 C33.0696174,0.455742909 32.9194665,0.393548387 32.7629032,0.393548387 L5.70645161,0.393548387 C5.38042545,0.393548387 5.11612903,0.657844809 5.11612903,0.983870968 L5.11612903,11.6943921 C5.11612903,12.0204182 5.38042545,12.2847147 5.70645161,12.2847147 C6.03247777,12.2847147 6.29677419,12.0204182 6.29677419,11.6943921 L6.29677419,1.57419355 Z"
                 id="Stroke-6769" />
              <path
                 d="M31.5583854,37.3125824 L54.6793531,60.4335501 C54.9098884,60.6640854 55.28366,60.6640854 55.5141953,60.4335501 C55.7447306,60.2030148 55.7447306,59.8292432 55.5141953,59.5987079 L32.3932276,36.4777402 C32.1626922,36.2472049 31.7889207,36.2472049 31.5583854,36.4777402 C31.32785,36.7082755 31.32785,37.0820471 31.5583854,37.3125824 Z"
                 id="Stroke-4098" />
              <path
                 d="M15.1516129,48.8 L37.2887097,48.8 C37.6147358,48.8 37.8790323,48.5357036 37.8790323,48.2096774 C37.8790323,47.8836513 37.6147358,47.6193548 37.2887097,47.6193548 L15.1516129,47.6193548 C14.8255867,47.6193548 14.5612903,47.8836513 14.5612903,48.2096774 C14.5612903,48.5357036 14.8255867,48.8 15.1516129,48.8 Z"
                 id="Stroke-6775" />
              <path
                 d="M33.55,13.3284418 L33.55,1.30169378 C33.55,0.975667624 33.2857036,0.711371202 32.9596774,0.711371202 C32.6336513,0.711371202 32.3693548,0.975667624 32.3693548,1.30169378 L32.3693548,13.499737 C32.3693548,13.6116261 32.4011534,13.7212111 32.4610447,13.8157214 L33.8819299,16.0579199 C33.990178,16.2287387 34.1783332,16.3322581 34.3805626,16.3322581 L47.2969865,16.3322581 C47.6230127,16.3322581 47.8873091,16.0679616 47.8873091,15.7419355 C47.8873091,15.4159093 47.6230127,15.1516129 47.2969865,15.1516129 L34.7053467,15.1516129 L33.55,13.3284418 Z"
                 id="Stroke-6770" />
              <path
                 d="M35.8129032,24.0064516 C35.8129032,14.5523084 28.1476916,6.88709677 18.6935484,6.88709677 C9.23940519,6.88709677 1.57419355,14.5523084 1.57419355,24.0064516 C1.57419355,33.4605948 9.23940519,41.1258065 18.6935484,41.1258065 C28.1476916,41.1258065 35.8129032,33.4605948 35.8129032,24.0064516 Z M36.9935484,24.0064516 C36.9935484,34.1126471 28.7997439,42.3064516 18.6935484,42.3064516 C8.58735287,42.3064516 0.393548387,34.1126471 0.393548387,24.0064516 C0.393548387,13.9002561 8.58735287,5.70645161 18.6935484,5.70645161 C28.7997439,5.70645161 36.9935484,13.9002561 36.9935484,24.0064516 Z"
                 id="Stroke-4097" />
              <g
                 id="Group-32"
                 transform="translate(13.774194, 14.758065)">
                <path
                   d="M0.776164875,12.2665024 C0.776164875,14.296207 2.47396553,15.9314217 4.55495818,15.9314217 C6.63782661,15.9314217 8.33375149,14.2970402 8.33375149,12.2665024 C8.33375149,10.2381252 6.63732576,8.60423584 4.55495818,8.60423584 C3.11835431,8.60423584 1.95681004,7.48417529 1.95681004,6.11996164 C1.95681004,4.7517688 3.11697878,3.63303465 4.55495818,3.63303465 C5.99466282,3.63303465 7.15310633,4.75077089 7.15310633,6.11996164 C7.15310633,6.4459878 7.41740275,6.71028422 7.74342891,6.71028422 C8.06945507,6.71028422 8.33375149,6.4459878 8.33375149,6.11996164 C8.33375149,4.08908156 6.6374521,2.45238949 4.55495818,2.45238949 C2.47434046,2.45238949 0.776164875,4.08991595 0.776164875,6.11996164 C0.776164875,8.14602813 2.47571599,9.784881 4.55495818,9.784881 C5.9949893,9.784881 7.15310633,10.9003057 7.15310633,12.2665024 C7.15310633,13.6350236 5.99533923,14.7507766 4.55495818,14.7507766 C3.11630218,14.7507766 1.95681004,13.6340267 1.95681004,12.2665024 C1.95681004,11.9404762 1.69251361,11.6761798 1.36648746,11.6761798 C1.0404613,11.6761798 0.776164875,11.9404762 0.776164875,12.2665024 Z"
                   id="Stroke-5297" />
                <path
                   d="M3.83709677,15.3410992 L3.83709677,17.4536888 C3.83709677,17.7797149 4.1013932,18.0440114 4.42741935,18.0440114 C4.75344551,18.0440114 5.01774194,17.7797149 5.01774194,17.4536888 L5.01774194,15.3410992 C5.01774194,15.015073 4.75344551,14.7507766 4.42741935,14.7507766 C4.1013932,14.7507766 3.83709677,15.015073 3.83709677,15.3410992 Z"
                   id="Stroke-5298" />
                <path
                   d="M3.83709677,1.22072879 L3.83709677,3.03462604 C3.83709677,3.36065219 4.1013932,3.62494862 4.42741935,3.62494862 C4.75344551,3.62494862 5.01774194,3.36065219 5.01774194,3.03462604 L5.01774194,1.22072879 C5.01774194,0.894702635 4.75344551,0.630406213 4.42741935,0.630406213 C4.1013932,0.630406213 3.83709677,0.894702635 3.83709677,1.22072879 Z"
                   id="Stroke-5299" />
              </g>
            </g>
          </g>
        </g>
      </g>
    </g>
  </g>
</svg>
