<?xml version="1.0" encoding="UTF-8"?>
<svg width="277px" height="133px" viewBox="0 0 277 133" version="1.1" xmlns="http://www.w3.org/2000/svg" xmlns:xlink="http://www.w3.org/1999/xlink">
    <!-- Generator: Sketch 46.2 (44496) - http://www.bohemiancoding.com/sketch -->
    <title>HIW-01-1_wide</title>
    <desc>Created with Sketch.</desc>
    <defs></defs>
    <g id="pages" stroke="none" stroke-width="1" fill="none" fill-rule="evenodd">
        <g id="[w]-3.1.0---Product---How-It-Works" transform="translate(-970.000000, -309.000000)">
            <g id="graphic_HIW-01_wide" transform="translate(0.000000, 238.000000)">
                <g id="HIW_wide" transform="translate(828.000000, 71.000000)">
                    <g id="HIW-01-1_wide" transform="translate(143.000000, 0.000000)">
                        <g id="Group-5" fill-rule="nonzero" fill="#FFFFFF">
                            <g id="icon_optimize" transform="translate(198.750000, 12.894737)">
                                <path d="M42.8363095,38.75 C42.8363095,36.4925372 41.0066204,34.6636905 38.75,34.6636905 C36.4933796,34.6636905 34.6636905,36.4925372 34.6636905,38.75 C34.6636905,41.0054293 36.4945707,42.8363095 38.75,42.8363095 C41.0054293,42.8363095 42.8363095,41.0054293 42.8363095,38.75 Z M44.3363095,38.75 C44.3363095,41.8338564 41.8338564,44.3363095 38.75,44.3363095 C35.6661436,44.3363095 33.1636905,41.8338564 33.1636905,38.75 C33.1636905,35.6639554 35.665107,33.1636905 38.75,33.1636905 C41.834893,33.1636905 44.3363095,35.6639554 44.3363095,38.75 Z" id="Stroke-3082"></path>
                                <path d="M42.6995473,35.8595007 L58.6593688,19.9029035 C58.9522916,19.6100399 58.9523395,19.1351661 58.6594759,18.8422433 C58.3666123,18.5493205 57.8917386,18.5492726 57.5988158,18.8421362 L41.6389943,34.7987334 C41.3460715,35.091597 41.3460235,35.5664708 41.6388872,35.8593936 C41.9317508,36.1523164 42.4066245,36.1523643 42.6995473,35.8595007 Z" id="Stroke-3083"></path>
                                <path d="M8.12003968,40.6904762 L14.5684524,40.6904762 C14.9826659,40.6904762 15.3184524,40.3546898 15.3184524,39.9404762 C15.3184524,39.5262626 14.9826659,39.1904762 14.5684524,39.1904762 L8.12003968,39.1904762 C7.70582612,39.1904762 7.37003968,39.5262626 7.37003968,39.9404762 C7.37003968,40.3546898 7.70582612,40.6904762 8.12003968,40.6904762 Z" id="Stroke-3084"></path>
                                <path d="M69.3799603,39.1904762 L62.9315476,39.1904762 C62.5173341,39.1904762 62.1815476,39.5262626 62.1815476,39.9404762 C62.1815476,40.3546898 62.5173341,40.6904762 62.9315476,40.6904762 L69.3799603,40.6904762 C69.7941739,40.6904762 70.1299603,40.3546898 70.1299603,39.9404762 C70.1299603,39.5262626 69.7941739,39.1904762 69.3799603,39.1904762 Z" id="Stroke-3085"></path>
                                <path d="M66.7600614,26.3360712 L60.8017281,28.802589 C60.4190105,28.9610192 60.2371896,29.3997061 60.3956198,29.7824237 C60.5540499,30.1651413 60.9927369,30.3469622 61.3754545,30.188532 L67.3337878,27.7220142 C67.7165054,27.563584 67.8983263,27.124897 67.7398961,26.7421795 C67.5814659,26.3594619 67.142779,26.177641 66.7600614,26.3360712 Z" id="Stroke-3086"></path>
                                <path d="M49.7763737,10.1646001 L47.3098559,16.1229334 C47.1514257,16.505651 47.3332466,16.944338 47.7159642,17.1027681 C48.0986818,17.2611983 48.5373687,17.0793774 48.6957989,16.6966598 L51.1623167,10.7383265 C51.3207469,10.3556089 51.138926,9.91692196 50.7562084,9.75849179 C50.3734908,9.60006162 49.9348039,9.7818825 49.7763737,10.1646001 Z" id="Stroke-3087"></path>
                                <path d="M38,8.12003968 L38,14.5684524 C38,14.9826659 38.3357864,15.3184524 38.75,15.3184524 C39.1642136,15.3184524 39.5,14.9826659 39.5,14.5684524 L39.5,8.12003968 C39.5,7.70582612 39.1642136,7.37003968 38.75,7.37003968 C38.3357864,7.37003968 38,7.70582612 38,8.12003968 Z" id="Stroke-3088"></path>
                                <path d="M26.3376833,10.7383265 L28.8042011,16.6966598 C28.9626313,17.0793774 29.4013182,17.2611983 29.7840358,17.1027681 C30.1667534,16.944338 30.3485743,16.505651 30.1901441,16.1229334 L27.7236263,10.1646001 C27.5651961,9.7818825 27.1265092,9.60006162 26.7437916,9.75849179 C26.361074,9.91692196 26.1792531,10.3556089 26.3376833,10.7383265 Z" id="Stroke-3089"></path>
                                <path d="M16.5627582,17.6185815 L21.1153376,22.1808335 C21.4079198,22.4740373 21.8827933,22.4745413 22.1759972,22.181959 C22.469201,21.8893768 22.469705,21.4145033 22.1771227,21.1212995 L17.6245434,16.5590475 C17.3319611,16.2658436 16.8570877,16.2653397 16.5638838,16.5579219 C16.2706799,16.8505042 16.270176,17.3253776 16.5627582,17.6185815 Z" id="Stroke-3090"></path>
                                <path d="M10.1660796,27.7219593 L16.1211887,30.1884771 C16.503876,30.3469805 16.9425977,30.1652436 17.1011011,29.7825563 C17.2596045,29.399869 17.0778676,28.9611473 16.6951803,28.8026439 L10.7400712,26.3361261 C10.3573839,26.1776227 9.91866218,26.3593596 9.76015879,26.7420469 C9.6016554,27.1247342 9.78339234,27.5634559 10.1660796,27.7219593 Z" id="Stroke-3091"></path>
                                <path d="M38.75,0.921626984 C59.6432688,0.921626984 76.578373,17.8577484 76.578373,38.75 L76.578373,53.2589286 C76.578373,53.6731421 76.2425866,54.0089286 75.828373,54.0089286 L1.67162698,54.0089286 C1.25741342,54.0089286 0.921626984,53.6731421 0.921626984,53.2589286 L0.921626984,38.75 C0.921626984,17.8577484 17.8567312,0.921626984 38.75,0.921626984 Z M75.078373,52.5089286 L75.078373,38.75 C75.078373,18.6861554 58.8148216,2.42162698 38.75,2.42162698 C18.6851784,2.42162698 2.42162698,18.6861554 2.42162698,38.75 L2.42162698,52.5089286 L75.078373,52.5089286 Z" id="Stroke-3092"></path>
                            </g>
                            <g id="icon_manage" transform="translate(100.000000, 2.894737)">
                                <path d="M43.0859871,0.421626984 C43.0859871,0.00741342175 42.7502007,-0.328373016 42.3359871,-0.328373016 L32.6633681,-0.328373016 C32.2491545,-0.328373016 31.9133681,0.00741342175 31.9133681,0.421626984 L31.9133681,10.3039163 C28.1246582,11.2319423 25.3297339,12.1173704 23.3689335,13.1876702 L16.3695584,6.19438938 C16.0766645,5.90175051 15.6020412,5.90181192 15.309223,6.19452657 L6.18794323,15.3125821 C5.89491652,15.6055053 5.89492625,16.0805404 6.18796496,16.3734515 L13.1870541,23.3694936 C12.1201559,25.322339 11.243953,28.0846885 10.29838,31.9136905 L0.421304563,31.9136905 C0.00709100112,31.9136905 -0.328695437,32.2494769 -0.328695437,32.6636905 L-0.328695437,42.3363095 C-0.328695437,42.7505231 0.00709100112,43.0863095 0.421304563,43.0863095 L10.29838,43.0863095 C11.2439715,46.9153864 12.1201902,49.6777691 13.1871167,51.630621 L6.18784948,58.6298882 C5.89491965,58.922818 5.89496163,59.397764 6.18794323,59.6906421 L15.309223,68.8086976 C15.6021765,69.1015476 16.0770669,69.1014539 16.3699049,68.8084884 L23.3653704,61.8099761 C25.3174333,62.8798153 28.0673642,63.7518201 31.9133681,64.7013182 L31.9133681,74.578373 C31.9133681,74.9925866 32.2491545,75.328373 32.6633681,75.328373 L42.3359871,75.328373 C42.7502007,75.328373 43.0859871,74.9925866 43.0859871,74.578373 L43.0859871,64.7013198 C46.9309687,63.7520955 49.6798555,62.8806964 51.6279149,61.8130468 L58.6297967,68.8088347 C58.9227272,69.1015103 59.3974229,69.101407 59.6902259,68.8086039 L68.8082815,59.6905483 C69.1011296,59.3977002 69.1011813,58.9229155 68.8083969,58.6300036 L61.8121759,51.6307355 C62.8791307,49.6778771 63.7553652,46.9154613 64.7009752,43.0863095 L74.5780506,43.0863095 C74.9922642,43.0863095 75.3280506,42.7505231 75.3280506,42.3363095 L75.3280506,32.6636905 C75.3280506,32.2494769 74.9922642,31.9136905 74.5780506,31.9136905 L64.6982174,31.9136905 C64.2060101,29.913281 63.7561889,28.2962972 63.2361757,26.7641608 C63.1030488,26.3719235 62.677157,26.161873 62.2849197,26.2949999 C61.8926824,26.4281268 61.6826319,26.8540186 61.8157588,27.2462559 C62.3668996,28.870105 62.841529,30.6101714 63.3800138,32.8397657 C63.4613345,33.1764738 63.7626635,33.4136905 64.1090526,33.4136905 L73.8280506,33.4136905 L73.8280506,41.5863095 L64.1122768,41.5863095 C63.7660722,41.5863095 63.4648534,41.8232788 63.3833542,42.1597539 C62.3350564,46.4877264 61.3824904,49.4848414 60.2351267,51.3632687 C60.0546115,51.6588025 60.099908,52.0395041 60.3447281,52.2844309 L67.2174067,59.1601028 L59.159665,67.2178445 L52.2807688,60.3449351 C52.0355177,60.0998975 51.6542814,60.054886 51.3587075,60.23607 C49.485064,61.3845957 46.5069275,62.3306499 42.1594315,63.3836766 C41.8229563,63.4651758 41.5859871,63.7663946 41.5859871,64.1125992 L41.5859871,73.828373 L33.4133681,73.828373 L33.4133681,64.1125992 C33.4133681,63.7663946 33.1763988,63.4651758 32.8399237,63.3836766 C28.491726,62.33048 25.5130753,61.384006 23.6340575,60.2327589 C23.3383405,60.0515773 22.956968,60.096774 22.7117916,60.3420572 L15.8392501,67.2175919 L7.77893349,59.1601245 L14.6545116,52.2845464 C14.8994282,52.0396298 14.9447755,51.6588546 14.7642284,51.3632687 C13.6168647,49.4848414 12.6642988,46.4877264 11.6160009,42.1597539 C11.5345018,41.8232788 11.233283,41.5863095 10.8870784,41.5863095 L1.17130456,41.5863095 L1.17130456,33.4136905 L10.8870784,33.4136905 C11.233283,33.4136905 11.5345018,33.1767212 11.6160009,32.8402461 C12.6642988,28.5122736 13.6168647,25.5151586 14.7642284,23.6367313 C14.9448072,23.3410934 14.8994091,22.9602445 14.6543962,22.7153382 L7.77904901,15.8429842 L15.8395965,7.78528598 L22.7153623,14.655065 C22.9602992,14.8997886 23.3409271,14.9450343 23.6364089,14.7645508 C25.5186987,13.6148279 28.5612162,12.6492686 32.8383341,11.623155 C33.1755798,11.5422471 33.4133681,11.2406643 33.4133681,10.8938492 L33.4133681,1.17162698 L41.5859871,1.17162698 L41.5859871,10.8938492 C41.5859871,11.2406643 41.8237754,11.5422471 42.161021,11.623155 C46.4327085,12.6479658 49.4769341,13.6145236 51.3597221,14.7645508 C51.7132102,14.9804652 52.1748022,14.8689397 52.3907165,14.5154515 C52.6066309,14.1619634 52.4951053,13.7003715 52.1416172,13.4844571 C50.1662914,12.2779068 47.2141682,11.315202 43.0859871,10.3039233 L43.0859871,0.421626984 Z" id="Stroke-6352"></path>
                                <path d="M25.1637316,30.5533144 C24.8885431,30.2437273 24.4144888,30.2158418 24.1049017,30.4910303 C23.7953146,30.7662188 23.7674291,31.2402731 24.0426176,31.5498602 L36.939443,46.0587888 C37.2455987,46.4032139 37.7870407,46.3926623 38.0795447,46.0365704 L75.1579177,0.897681552 C75.4208354,0.577607857 75.3745013,0.104999971 75.0544276,-0.157917707 C74.7343539,-0.420835384 74.261746,-0.374501278 73.9988283,-0.0544275834 L37.4775069,44.4063116 L25.1637316,30.5533144 Z" id="Stroke-6353"></path>
                            </g>
                            <g id="icon_discover" transform="translate(0.000000, 0.394737)">
                                <path d="M14.6215675,37.728833 C14.6215675,24.9659587 24.9659587,14.6215675 37.728833,14.6215675 C50.4867978,14.6215675 60.8360984,24.9684857 60.8360984,37.728833 C60.8360984,48.1084589 53.9134269,57.1032653 44.1026888,59.9156992 L44.1026888,63.7585812 C44.1026888,64.198229 43.7462839,64.5546339 43.3066362,64.5546339 L32.1510297,64.5546339 C31.711382,64.5546339 31.3549771,64.198229 31.3549771,63.7585812 L31.3549771,59.9158209 C21.5403738,57.104384 14.6215675,48.1117144 14.6215675,37.728833 Z M42.5105835,59.3074943 C42.5105835,58.9444479 42.7562144,58.6273926 43.1077472,58.5366876 C52.5355096,56.1040696 59.2439931,47.5864393 59.2439931,37.728833 C59.2439931,25.8478632 49.6075844,16.2136728 37.728833,16.2136728 C25.8452541,16.2136728 16.2136728,25.8452541 16.2136728,37.728833 C16.2136728,47.5897786 22.918091,56.1049021 32.3497746,58.5366504 C32.701378,58.6273035 32.9470824,58.9443925 32.9470824,59.3074943 L32.9470824,62.9625286 L42.5105835,62.9625286 L42.5105835,59.3074943 Z" id="Stroke-276"></path>
                                <path d="M39.5881007,77.4934211 L35.8695652,77.4934211 C35.4299175,77.4934211 35.0735126,77.849826 35.0735126,78.2894737 C35.0735126,78.7291214 35.4299175,79.0855263 35.8695652,79.0855263 L39.5881007,79.0855263 C40.0277484,79.0855263 40.3841533,78.7291214 40.3841533,78.2894737 C40.3841533,77.849826 40.0277484,77.4934211 39.5881007,77.4934211 Z" id="Stroke-278"></path>
                                <path d="M43.3066362,70.2565789 L32.1510297,70.2565789 C31.711382,70.2565789 31.3549771,70.6129839 31.3549771,71.0526316 C31.3549771,71.4922793 31.711382,71.8486842 32.1510297,71.8486842 L43.3066362,71.8486842 C43.7462839,71.8486842 44.1026888,71.4922793 44.1026888,71.0526316 C44.1026888,70.6129839 43.7462839,70.2565789 43.3066362,70.2565789 Z" id="Stroke-280"></path>
                                <path d="M36.7039474,0.543478261 L36.7039474,7.9805492 C36.7039474,8.42019693 37.0603523,8.77660183 37.5,8.77660183 C37.9396477,8.77660183 38.2960526,8.42019693 38.2960526,7.9805492 L38.2960526,0.543478261 C38.2960526,0.103830532 37.9396477,-0.252574371 37.5,-0.252574371 C37.0603523,-0.252574371 36.7039474,0.103830532 36.7039474,0.543478261 Z" id="Stroke-282"></path>
                                <path d="M74.9141876,36.7039474 L67.4771167,36.7039474 C67.037469,36.7039474 66.6810641,37.0603523 66.6810641,37.5 C66.6810641,37.9396477 67.037469,38.2960526 67.4771167,38.2960526 L74.9141876,38.2960526 C75.3538354,38.2960526 75.7102403,37.9396477 75.7102403,37.5 C75.7102403,37.0603523 75.3538354,36.7039474 74.9141876,36.7039474 Z" id="Stroke-284"></path>
                                <path d="M0.543478261,38.2960526 L7.9805492,38.2960526 C8.42019693,38.2960526 8.77660183,37.9396477 8.77660183,37.5 C8.77660183,37.0603523 8.42019693,36.7039474 7.9805492,36.7039474 L0.543478261,36.7039474 C0.103830532,36.7039474 -0.252574371,37.0603523 -0.252574371,37.5 C-0.252574371,37.9396477 0.103830532,38.2960526 0.543478261,38.2960526 Z" id="Stroke-286"></path>
                                <path d="M8.23833576,9.36784273 L16.129068,17.258575 C16.4399459,17.5694529 16.9439786,17.5694529 17.2548565,17.258575 C17.5657343,16.9476971 17.5657343,16.4436645 17.2548565,16.1327866 L9.36412419,8.2420543 C9.0532463,7.93117641 8.54921365,7.93117641 8.23833576,8.2420543 C7.92745787,8.55293219 7.92745787,9.05696484 8.23833576,9.36784273 Z" id="Stroke-288"></path>
                                <path d="M66.0861046,8.2420543 L58.1953724,16.1327866 C57.8844945,16.4436645 57.8844945,16.9476971 58.1953724,17.258575 C58.5062503,17.5694529 59.0102829,17.5694529 59.3211608,17.258575 L67.2118931,9.36784273 C67.522771,9.05696484 67.522771,8.55293219 67.2118931,8.2420543 C66.9010152,7.93117641 66.3969825,7.93117641 66.0861046,8.2420543 Z" id="Stroke-290"></path>
                            </g>
                        </g>
                        <g id="Group-1270-Copy" transform="translate(138.263456, 116.263456) scale(-1, 1) rotate(-45.000000) translate(-138.263456, -116.263456) translate(126.763456, 104.763456)" stroke="#FFFFFF" stroke-width="1.6" stroke-linecap="round" stroke-linejoin="round">
                            <path d="M0.344877345,22.6551227 L22.6212121,0.378787879" id="Stroke-1701"></path>
                            <polyline id="Stroke-1703" points="22.6212121 14.4480519 22.6212121 0.378787879 8.55194805 0.378787879"></polyline>
                        </g>
                    </g>
                </g>
            </g>
        </g>
    </g>
</svg>