<?xml version="1.0" encoding="UTF-8"?>
<svg width="118px" height="123px" viewBox="0 0 118 123" version="1.1" xmlns="http://www.w3.org/2000/svg" xmlns:xlink="http://www.w3.org/1999/xlink">
    <!-- Generator: Sketch 46.2 (44496) - http://www.bohemiancoding.com/sketch -->
    <title>icon / discover</title>
    <desc>Created with Sketch.</desc>
    <defs></defs>
    <g id="components" stroke="none" stroke-width="1" fill="none" fill-rule="evenodd">
        <g id="content_features_iconography" transform="translate(-225.000000, -1317.000000)" fill-rule="nonzero" fill="#33A3AC">
            <g id="wide-hover" transform="translate(0.000000, 1050.000000)">
                <g id="col-1_hover" transform="translate(80.000000, 182.000000)">
                    <g id="icon-/-discover" transform="translate(147.000000, 87.000000)">
                        <path d="M21.5,57.1538462 C21.5,37.4626235 37.3907198,21.5 57,21.5 C76.6017835,21.5 92.5,37.4664777 92.5,57.1538462 C92.5,73.0948804 81.9632307,86.9202848 67,91.327333 L67,97 C67,97.8284271 66.3284271,98.5 65.5,98.5 L48.5,98.5 C47.6715729,98.5 47,97.8284271 47,97 L47,91.3275638 C32.0309461,86.9220694 21.5,73.0998439 21.5,57.1538462 Z M64,95.5 L64,90.1863077 C64,89.5028314 64.4620314,88.9057762 65.1236447,88.7342895 C79.3646115,85.0431075 89.5,72.1161736 89.5,57.1538462 C89.5,39.1204615 74.9420452,24.5 57,24.5 C39.0506135,24.5 24.5,39.1164534 24.5,57.1538462 C24.5,72.1212938 34.6291947,85.044357 48.8760826,88.7342189 C49.5378296,88.9056076 50,89.5027266 50,90.1863077 L50,95.5 L64,95.5 Z" id="Stroke-276"></path>
                        <path d="M60,117.5 L54,117.5 C53.1715729,117.5 52.5,118.171573 52.5,119 C52.5,119.828427 53.1715729,120.5 54,120.5 L60,120.5 C60.8284271,120.5 61.5,119.828427 61.5,119 C61.5,118.171573 60.8284271,117.5 60,117.5 Z" id="Stroke-278"></path>
                        <path d="M65,106.5 L48,106.5 C47.1715729,106.5 46.5,107.171573 46.5,108 C46.5,108.828427 47.1715729,109.5 48,109.5 L65,109.5 C65.8284271,109.5 66.5,108.828427 66.5,108 C66.5,107.171573 65.8284271,106.5 65,106.5 Z" id="Stroke-280"></path>
                        <path d="M55.5,0 L55.5,11 C55.5,11.8284271 56.1715729,12.5 57,12.5 C57.8284271,12.5 58.5,11.8284271 58.5,11 L58.5,0 C58.5,-0.828427125 57.8284271,-1.5 57,-1.5 C56.1715729,-1.5 55.5,-0.828427125 55.5,0 Z" id="Stroke-282"></path>
                        <path d="M114,55.5 L103,55.5 C102.171573,55.5 101.5,56.1715729 101.5,57 C101.5,57.8284271 102.171573,58.5 103,58.5 L114,58.5 C114.828427,58.5 115.5,57.8284271 115.5,57 C115.5,56.1715729 114.828427,55.5 114,55.5 Z" id="Stroke-284"></path>
                        <path d="M0,58.5 L11,58.5 C11.8284271,58.5 12.5,57.8284271 12.5,57 C12.5,56.1715729 11.8284271,55.5 11,55.5 L0,55.5 C-0.828427125,55.5 -1.5,56.1715729 -1.5,57 C-1.5,57.8284271 -0.828427125,58.5 0,58.5 Z" id="Stroke-286"></path>
                        <path d="M11.9393398,14.0606602 L23.9393398,26.0606602 C24.5251263,26.6464466 25.4748737,26.6464466 26.0606602,26.0606602 C26.6464466,25.4748737 26.6464466,24.5251263 26.0606602,23.9393398 L14.0606602,11.9393398 C13.4748737,11.3535534 12.5251263,11.3535534 11.9393398,11.9393398 C11.3535534,12.5251263 11.3535534,13.4748737 11.9393398,14.0606602 Z" id="Stroke-288"></path>
                        <path d="M99.9393398,11.9393398 L87.9393398,23.9393398 C87.3535534,24.5251263 87.3535534,25.4748737 87.9393398,26.0606602 C88.5251263,26.6464466 89.4748737,26.6464466 90.0606602,26.0606602 L102.06066,14.0606602 C102.646447,13.4748737 102.646447,12.5251263 102.06066,11.9393398 C101.474874,11.3535534 100.525126,11.3535534 99.9393398,11.9393398 Z" id="Stroke-290"></path>
                    </g>
                </g>
            </g>
        </g>
    </g>
</svg>