<?xml version="1.0" encoding="UTF-8"?>
<svg width="118px" height="118px" viewBox="0 0 118 118" version="1.1" xmlns="http://www.w3.org/2000/svg" xmlns:xlink="http://www.w3.org/1999/xlink">
    <!-- Generator: Sketch 46.2 (44496) - http://www.bohemiancoding.com/sketch -->
    <title>icon_manage</title>
    <desc>Created with Sketch.</desc>
    <defs></defs>
    <g id="components" stroke="none" stroke-width="1" fill="none" fill-rule="evenodd">
        <g id="content_features_iconography" transform="translate(-661.000000, -1321.000000)" fill-rule="nonzero" fill="#33A3AC">
            <g id="wide-hover" transform="translate(0.000000, 1050.000000)">
                <g id="col-2" transform="translate(525.000000, 205.000000)">
                    <g id="icon-/-manage" transform="translate(137.000000, 67.000000)">
                        <path d="M66.9995,0.5 C66.9995,-0.328427125 66.3279271,-1 65.4995,-1 L50.4995,-1 C49.6710729,-1 48.9995,-0.328427125 48.9995,0.5 L48.9995,15.5609799 C43.3655613,16.9496865 39.16194,18.2813329 36.1468566,19.8817398 L25.4696981,9.21387797 C24.8839103,8.62860022 23.9346637,8.62872304 23.3490273,9.21415235 L9.20402734,23.3541523 C8.61797392,23.9399986 8.61799337,24.8900688 9.20407078,25.4758911 L19.8806273,36.1477995 C18.285706,39.1496436 16.9668335,43.3080265 15.5528975,49 L0.4995,49 C-0.328927125,49 -1.0005,49.6715729 -1.0005,50.5 L-1.0005,65.5 C-1.0005,66.3284271 -0.328927125,67 0.4995,67 L15.5528975,67 C16.9668696,72.6921187 18.2857733,76.8505686 19.8807494,79.8524303 L9.20383983,90.5293398 C8.61798017,91.1151995 8.61806413,92.0650916 9.20402734,92.6508477 L23.3490273,106.790848 C23.9349343,107.376547 24.8847152,107.37636 25.4703911,106.790429 L36.1411608,96.115012 C39.141337,97.714 43.2827575,99.0270834 48.9995,100.446655 L48.9995,115.5 C48.9995,116.328427 49.6710729,117 50.4995,117 L65.4995,117 C66.3279271,117 66.9995,116.328427 66.9995,115.5 L66.9995,100.446659 C72.714513,99.0275594 76.854175,97.7154582 79.8485736,96.1196894 L90.5293017,106.791122 C91.1151627,107.376473 92.0645541,107.376266 92.6501602,106.79066 L106.79016,92.6506602 C107.375856,92.0649639 107.37596,91.1153945 106.790391,90.5295708 L96.1181285,79.85266 C97.7131594,76.8507808 99.0320943,72.692264 100.446103,67 L115.4995,67 C116.327927,67 116.9995,66.3284271 116.9995,65.5 L116.9995,50.5 C116.9995,49.6715729 116.327927,49 115.4995,49 L100.442045,49 C99.7011634,46.0067413 99.0176751,43.5639093 98.2299169,41.2429048 C97.9636631,40.4584302 97.1118795,40.0383293 96.3274048,40.3045831 C95.5429302,40.5708369 95.1228293,41.4226205 95.3890831,42.2070952 C96.2397989,44.7135944 96.9735436,47.4036189 97.8064225,50.8521505 C97.9690639,51.5255667 98.5717218,52 99.2645,52 L113.9995,52 L113.9995,64 L99.2695,64 C98.5770908,64 97.9746532,64.4739385 97.8116549,65.1468887 C96.1946679,71.8227348 94.7236323,76.4511419 92.9694062,79.3231049 C92.6083757,79.9141726 92.6989687,80.6755757 93.1886089,81.1654292 L103.608411,91.5897691 L91.5890383,103.609141 L81.1596983,93.1888782 C80.6691962,92.6988029 79.9067234,92.60878 79.3155758,92.9711479 C76.4512805,94.7269337 71.8521689,96.1879175 65.1463887,97.8121549 C64.4734385,97.9751532 63.9995,98.5775908 63.9995,99.27 L63.9995,114 L51.9995,114 L51.9995,99.27 C51.9995,98.5775908 51.5255615,97.9751532 50.8526113,97.8121549 C44.1456763,96.1876378 39.545814,94.7260196 36.6731407,92.9659741 C36.0817067,92.603611 35.3189617,92.6940044 34.8286089,93.1845708 L24.4090816,103.608636 L12.3860079,91.5898125 L22.8101602,81.1656602 C23.2999933,80.6758271 23.3906878,79.9142766 23.0295938,79.3231049 C21.2753677,76.4511419 19.8043321,71.8227348 18.1873451,65.1468887 C18.0243468,64.4739385 17.4219092,64 16.7295,64 L1.9995,64 L1.9995,52 L16.7295,52 C17.4219092,52 18.0243468,51.5260615 18.1873451,50.8531113 C19.8043321,44.1772652 21.2753677,39.5488581 23.0295938,36.6768951 C23.3907514,36.0856194 23.2999552,35.3239215 22.8099292,34.8341089 L12.3862389,24.4149566 L24.4097744,12.3956712 L34.8343019,22.811122 C35.3241757,23.3005694 36.0854315,23.3910607 36.6763951,23.0300938 C39.554251,21.2722683 44.2523351,19.7813061 50.8494322,18.1986115 C51.5239234,18.0367958 51.9995,17.4336301 51.9995,16.74 L51.9995,2 L63.9995,2 L63.9995,16.74 C63.9995,17.4336301 64.4750766,18.0367958 65.1495678,18.1986115 C71.7382837,19.7792953 76.4389556,21.2717837 79.3176049,23.0300938 C80.0245812,23.4619225 80.947765,23.2388714 81.3795938,22.5318951 C81.8114225,21.8249188 81.5883714,20.901735 80.8813951,20.4699062 C77.819734,18.5998105 73.3015984,17.1145973 66.9995,15.5609979 L66.9995,0.5 Z" id="Stroke-6352"></path>
                        <path d="M39.121114,47.0034542 C38.570737,46.3842801 37.6226284,46.328509 37.0034542,46.878886 C36.3842801,47.429263 36.328509,48.3773716 36.878886,48.9965458 L56.878886,71.4965458 C57.4911975,72.1853961 58.5740813,72.1642929 59.1590894,71.4521091 L116.659089,1.45210914 C117.184925,0.811961746 117.092257,-0.133254026 116.452109,-0.659089382 C115.811962,-1.18492474 114.866746,-1.09225652 114.340911,-0.452109135 L57.9550137,68.1915914 L39.121114,47.0034542 Z" id="Stroke-6353"></path>
                    </g>
                </g>
            </g>
        </g>
    </g>
</svg>