<?xml version="1.0" encoding="UTF-8"?>
<svg width="164px" height="109px" viewBox="0 0 164 109" version="1.1" xmlns="http://www.w3.org/2000/svg" xmlns:xlink="http://www.w3.org/1999/xlink">
    <!-- Generator: Sketch 46.2 (44496) - http://www.bohemiancoding.com/sketch -->
    <title>logo_vt_white</title>
    <desc>Created with Sketch.</desc>
    <defs></defs>
    <g id="logo" stroke="none" stroke-width="1" fill="none" fill-rule="evenodd">
        <g id="Logo_Arrangement_b&amp;w" transform="translate(-93.000000, -504.000000)" fill="#FFFFFF">
            <g id="logo_vt_white" transform="translate(93.000000, 504.000000)">
                <g id="logo-/-solid-/-white" transform="translate(46.000000, 0.000000)">
                    <g id="Page-1">
                        <polygon id="Fill-1" points="36 24.0003 48 47.9993 60 72.0003 72 47.9993 60 24.0003"></polygon>
                        <polygon id="Fill-2" points="24.0003 0 0.0003 48 11.9993 72 36.0003 72 47.9993 48 24.0003 48 36.0003 24 47.9993 0"></polygon>
                    </g>
                </g>
                <path d="M14.184,108.608 L13.128,106.064 L5.256,106.064 L4.176,108.608 L0,108.608 L6.984,92.288 L11.376,92.288 L18.384,108.608 L14.184,108.608 Z M6.624,102.848 L11.76,102.848 L9.216,96.752 L6.624,102.848 Z M33.7973335,92.288 C37.9733335,92.288 39.9893335,95.408 39.9893335,98.576 C39.9893335,101.792 37.9493335,104.912 33.7733335,104.912 L30.2213335,104.912 L30.2213335,108.608 L26.2613335,108.608 L26.2613335,92.288 L33.7973335,92.288 Z M33.3413335,95.936 L30.2213335,95.936 L30.2213335,101.288 L33.3413335,101.288 C34.9253335,101.288 36.0053335,100.352 36.0053335,98.576 C36.0053335,96.824 34.9253335,95.96 33.3413335,95.936 Z M55.762667,92.288 C59.938667,92.288 61.954667,95.408 61.954667,98.576 C61.954667,101.792 59.914667,104.912 55.738667,104.912 L52.186667,104.912 L52.186667,108.608 L48.226667,108.608 L48.226667,92.288 L55.762667,92.288 Z M55.306667,95.936 L52.186667,95.936 L52.186667,101.288 L55.306667,101.288 C56.890667,101.288 57.970667,100.352 57.970667,98.576 C57.970667,96.824 56.890667,95.96 55.306667,95.936 Z M74.2480005,92.288 L70.3120005,92.288 L70.3120005,108.608 L82.8160005,108.608 L82.8160005,104.96 L74.2480005,104.96 L74.2480005,92.288 Z M97.485334,92 C102.117334,92 105.909334,95.816 105.909334,100.448 C105.909334,105.104 102.117334,108.896 97.485334,108.896 C92.805334,108.896 89.061334,105.104 89.061334,100.448 C89.061334,95.816 92.805334,92 97.485334,92 Z M97.485334,95.672 C94.821334,95.672 92.661334,97.808 92.661334,100.448 C92.661334,103.112 94.821334,105.248 97.485334,105.248 C100.101334,105.248 102.261334,103.112 102.261334,100.448 C102.261334,97.808 100.101334,95.672 97.485334,95.672 Z M121.898667,92 C116.762667,92 113.042667,95.912 113.042667,100.448 C113.042667,104.84 116.522667,108.896 121.922667,108.896 C126.698667,108.896 129.266667,105.536 129.386667,105.296 L129.386667,99.248 L120.938667,99.248 L120.938667,102.272 L125.906667,102.272 L125.906667,103.856 C125.042667,104.672 123.650667,105.224 121.898667,105.224 C119.042667,105.224 117.002667,102.992 117.002667,100.4 C117.002667,97.688 118.994667,95.696 121.850667,95.696 C123.722667,95.696 124.994667,96.272 125.810667,97.304 L129.218667,95.576 C127.586667,93.416 125.042667,92 121.898667,92 Z M141.632001,92.288 L137.696001,92.288 L137.696001,108.608 L141.632001,108.608 L141.632001,92.288 Z M150.613334,92.288 L150.613334,108.608 L163.117334,108.608 L163.117334,104.96 L154.549334,104.96 L154.549334,102.152 L161.701334,102.152 L161.701334,98.744 L154.549334,98.744 L154.549334,95.936 L163.117334,95.936 L163.117334,92.288 L150.613334,92.288 Z" id="applogie"></path>
            </g>
        </g>
    </g>
</svg>