<?xml version="1.0" standalone="no"?>
<!DOCTYPE svg PUBLIC "-//W3C//DTD SVG 20010904//EN"
 "http://www.w3.org/TR/2001/REC-SVG-20010904/DTD/svg10.dtd">
<svg version="1.0" xmlns="http://www.w3.org/2000/svg"
 width="1724.000000pt" height="861.000000pt" viewBox="0 0 1724.000000 861.000000"
 preserveAspectRatio="xMidYMid meet">
<metadata>
Created by potrace 1.13, written by Peter Selinger 2001-2015
</metadata>
<g transform="translate(0.000000,861.000000) scale(0.100000,-0.100000)"
fill="#000000" stroke="none">
<path d="M8360 8240 c-710 -68 -1335 -351 -1836 -832 -516 -496 -833 -1145
-910 -1863 -22 -201 -14 -553 15 -745 203 -1322 1214 -2336 2536 -2542 189
-29 578 -36 775 -13 835 96 1572 516 2073 1182 324 429 520 918 589 1463 8 65
13 205 12 365 0 216 -4 284 -23 405 -127 827 -541 1517 -1205 2008 -400 296
-879 487 -1396 557 -139 19 -498 27 -630 15z m695 -149 c298 -48 556 -131 830
-266 458 -225 842 -563 1129 -993 543 -815 633 -1856 238 -2760 -169 -386
-455 -767 -782 -1041 -442 -371 -947 -589 -1530 -663 -173 -22 -564 -16 -740
11 -187 28 -402 81 -560 137 -270 97 -613 289 -840 470 -120 96 -352 330 -449
452 -704 892 -828 2099 -318 3102 439 863 1265 1443 2230 1565 171 22 621 14
792 -14z"/>
<path d="M8647 5392 c-388 -1010 -707 -1843 -709 -1851 -2 -9 22 -24 71 -43
41 -16 78 -27 83 -26 7 3 1427 3678 1428 3694 0 1 -8 4 -17 7 -10 3 -48 16
-84 30 l-66 26 -706 -1837z"/>
<path d="M6660 6115 c-169 -35 -297 -101 -405 -210 -88 -88 -139 -168 -186
-290 -111 -287 -109 -581 6 -848 54 -125 94 -186 185 -277 68 -68 102 -94 170
-128 139 -68 218 -85 405 -86 181 -1 257 15 385 79 38 19 74 35 80 35 6 0 65
-41 130 -90 66 -50 126 -93 134 -96 16 -6 104 95 90 104 -5 4 -62 47 -126 95
l-117 89 55 66 c126 151 214 415 214 639 0 171 -66 420 -148 556 -54 91 -177
214 -265 266 -163 96 -413 136 -607 96z m325 -150 c177 -34 321 -143 407 -311
75 -144 100 -242 105 -414 6 -167 -12 -277 -66 -415 -31 -79 -118 -210 -146
-221 -9 -4 -66 33 -142 91 -122 92 -128 95 -143 77 -55 -69 -72 -93 -69 -96 2
-1 55 -42 118 -89 l113 -87 -64 -29 c-73 -34 -194 -61 -268 -61 -75 0 -197 28
-267 61 -207 98 -341 293 -388 566 -63 362 94 749 355 877 131 64 294 82 455
51z"/>
<path d="M10027 6063 c-25 -41 -717 -1759 -713 -1769 4 -11 27 -14 94 -14 l89
0 103 268 c56 147 107 273 113 280 7 9 97 12 410 10 l400 -3 96 -246 c53 -136
101 -261 108 -278 l11 -31 91 0 c66 0 91 3 91 13 0 6 -156 409 -346 895 l-347
882 -98 0 c-54 0 -100 -3 -102 -7z m264 -619 c90 -240 166 -440 167 -445 2 -5
-146 -9 -343 -9 -202 0 -345 4 -343 9 55 149 345 881 349 881 3 0 79 -196 170
-436z"/>
<path d="M577 1050 c-142 -36 -229 -157 -230 -320 -2 -112 24 -182 93 -252 43
-44 67 -60 109 -72 69 -20 145 -20 204 0 l47 16 46 -38 47 -39 28 35 29 35
-37 32 -38 31 18 29 c96 151 81 359 -35 470 -66 64 -189 96 -281 73z m174
-113 c64 -43 99 -117 99 -213 0 -59 -24 -146 -45 -164 -15 -12 -20 -10 -81 35
-9 6 -21 2 -39 -15 -32 -30 -32 -43 1 -69 l26 -20 -26 -7 c-47 -12 -114 5
-152 38 -61 54 -79 100 -79 203 1 108 22 158 87 205 36 26 49 30 108 30 53 0
74 -5 101 -23z"/>
<path d="M8998 1047 c-95 -27 -148 -93 -148 -182 0 -98 50 -137 227 -180 130
-31 163 -53 163 -109 0 -69 -97 -112 -198 -86 -60 15 -101 53 -108 102 -7 38
-7 38 -55 38 -49 0 -49 0 -49 -32 1 -150 188 -246 370 -192 169 50 200 255 51
329 -24 12 -88 33 -144 45 -123 28 -164 57 -152 108 10 49 47 72 117 72 33 0
72 -7 88 -15 30 -15 60 -61 60 -90 0 -11 12 -15 50 -15 47 0 50 2 50 25 0 34
-26 94 -53 123 -55 59 -175 85 -269 59z"/>
<path d="M1810 813 c0 -237 5 -278 43 -334 69 -103 300 -121 399 -31 68 62 72
77 76 350 l4 242 -56 0 -56 0 0 -225 c0 -247 -6 -279 -56 -312 -39 -25 -148
-25 -187 1 -57 38 -61 60 -65 309 l-4 227 -49 0 -49 0 0 -227z"/>
<path d="M3262 728 c-67 -172 -122 -317 -122 -321 0 -4 24 -7 52 -5 l53 3 34
93 34 92 122 0 122 0 34 -92 34 -93 49 -3 c27 -2 52 0 56 5 4 4 -48 148 -114
318 l-122 310 -55 3 -55 3 -122 -313z m218 73 c22 -61 40 -114 40 -116 0 -3
-39 -5 -86 -5 -65 0 -85 3 -82 13 3 6 22 60 43 119 22 59 40 106 42 104 2 -1
21 -53 43 -115z"/>
<path d="M4420 1034 c0 -3 54 -89 120 -189 l120 -184 0 -131 0 -131 53 3 52 3
3 134 3 134 119 183 119 184 -62 0 -62 0 -84 -139 c-73 -119 -87 -137 -96
-123 -7 9 -47 72 -90 140 l-77 122 -59 0 c-32 0 -59 -3 -59 -6z"/>
<path d="M6208 737 c-65 -166 -121 -310 -124 -319 -5 -16 1 -18 45 -18 58 0
60 3 101 123 l24 67 122 0 122 0 34 -92 33 -93 59 -3 c53 -3 58 -1 52 15 -4
10 -60 154 -124 320 l-117 303 -55 0 -55 0 -117 -303z m217 57 c19 -54 35
-102 35 -106 0 -5 -39 -8 -86 -8 -47 0 -84 4 -82 8 2 4 21 58 43 120 23 66 43
106 47 98 4 -7 23 -57 43 -112z"/>
<path d="M7472 803 c3 -217 5 -242 24 -283 27 -58 71 -95 136 -115 115 -34
250 -7 306 61 47 56 52 92 52 343 l0 231 -49 0 -49 0 -4 -234 c-3 -219 -4
-236 -24 -263 -33 -46 -80 -65 -143 -59 -63 6 -99 28 -123 77 -16 29 -18 64
-18 257 l0 222 -56 0 -56 0 4 -237z"/>
<path d="M10120 995 l0 -45 105 0 105 0 0 -275 0 -275 50 0 50 0 0 275 0 275
105 0 105 0 0 45 0 45 -260 0 -260 0 0 -45z"/>
<path d="M11442 723 l3 -318 53 -3 52 -3 0 135 0 136 99 0 c55 0 111 -4 126
-10 34 -13 51 -56 60 -155 4 -44 12 -86 17 -92 10 -13 118 -19 118 -8 0 4 -6
18 -14 33 -8 15 -17 54 -20 87 -13 116 -18 136 -42 164 l-24 28 21 19 c67 61
72 181 11 248 -47 51 -74 56 -277 56 l-185 0 2 -317z m351 216 c50 -23 62
-100 23 -146 -24 -27 -27 -28 -145 -31 l-121 -4 0 96 0 96 110 0 c60 0 120 -5
133 -11z"/>
<path d="M12961 1018 c-5 -13 -59 -151 -120 -308 -61 -157 -111 -291 -111
-298 0 -8 17 -12 49 -12 l49 0 26 68 c14 37 30 80 35 95 l11 28 122 -3 122 -3
34 -92 34 -93 54 0 c30 0 54 4 54 10 0 7 -165 436 -237 618 -3 7 -25 12 -59
12 -47 0 -56 -3 -63 -22z m67 -336 c-44 -2 -83 -1 -86 2 -4 5 8 43 61 186 l20
54 42 -119 43 -120 -80 -3z"/>
<path d="M14122 723 l3 -318 213 -3 212 -2 0 50 0 50 -160 0 -160 0 0 270 0
270 -55 0 -55 0 2 -317z"/>
<path d="M15370 720 l0 -320 50 0 50 0 0 320 0 320 -50 0 -50 0 0 -320z"/>
<path d="M16502 988 c-11 -29 -66 -169 -121 -312 -56 -142 -101 -262 -101
-268 0 -5 24 -8 52 -6 l53 3 34 93 34 92 122 0 122 0 34 -92 34 -93 44 -3 c24
-2 49 -1 56 2 9 3 -22 93 -110 318 l-122 313 -56 3 -55 3 -20 -53z m118 -187
c22 -62 40 -115 40 -117 0 -2 -39 -4 -86 -4 -65 0 -85 3 -82 13 3 6 22 60 43
120 21 59 39 106 41 104 2 -1 21 -54 44 -116z"/>
</g>
</svg>
